G04 #@! TF.GenerationSoftware,KiCad,Pcbnew,5.1.4-e60b266~84~ubuntu18.04.1*
G04 #@! TF.CreationDate,2020-01-27T23:34:11+00:00*
G04 #@! TF.ProjectId,fco_v1,66636f5f-7631-42e6-9b69-6361645f7063,rev?*
G04 #@! TF.SameCoordinates,Original*
G04 #@! TF.FileFunction,Soldermask,Top*
G04 #@! TF.FilePolarity,Negative*
%FSLAX46Y46*%
G04 Gerber Fmt 4.6, Leading zero omitted, Abs format (unit mm)*
G04 Created by KiCad (PCBNEW 5.1.4-e60b266~84~ubuntu18.04.1) date 2020-01-27 23:34:11*
%MOMM*%
%LPD*%
G04 APERTURE LIST*
%ADD10C,0.100000*%
G04 APERTURE END LIST*
D10*
G36*
X158727546Y-101485701D02*
G01*
X159109721Y-101644003D01*
X159109723Y-101644004D01*
X159453672Y-101873823D01*
X159746177Y-102166328D01*
X159807065Y-102257454D01*
X159975997Y-102510279D01*
X160134299Y-102892454D01*
X160215000Y-103298167D01*
X160215000Y-103711833D01*
X160134299Y-104117546D01*
X160096553Y-104208672D01*
X159975996Y-104499723D01*
X159746177Y-104843672D01*
X159453672Y-105136177D01*
X159109723Y-105365996D01*
X159109722Y-105365997D01*
X159109721Y-105365997D01*
X158727546Y-105524299D01*
X158321833Y-105605000D01*
X157908167Y-105605000D01*
X157502454Y-105524299D01*
X157120279Y-105365997D01*
X157120278Y-105365997D01*
X157120277Y-105365996D01*
X156776328Y-105136177D01*
X156483823Y-104843672D01*
X156254004Y-104499723D01*
X156133447Y-104208672D01*
X156095701Y-104117546D01*
X156015000Y-103711833D01*
X156015000Y-103298167D01*
X156095701Y-102892454D01*
X156254003Y-102510279D01*
X156422935Y-102257454D01*
X156483823Y-102166328D01*
X156776328Y-101873823D01*
X157120277Y-101644004D01*
X157120279Y-101644003D01*
X157502454Y-101485701D01*
X157908167Y-101405000D01*
X158321833Y-101405000D01*
X158727546Y-101485701D01*
X158727546Y-101485701D01*
G37*
G36*
X73637546Y-100850701D02*
G01*
X74019721Y-101009003D01*
X74019723Y-101009004D01*
X74363672Y-101238823D01*
X74656177Y-101531328D01*
X74885024Y-101873823D01*
X74885997Y-101875279D01*
X75044299Y-102257454D01*
X75125000Y-102663167D01*
X75125000Y-103076833D01*
X75044299Y-103482546D01*
X74949325Y-103711833D01*
X74885996Y-103864723D01*
X74656177Y-104208672D01*
X74363672Y-104501177D01*
X74019723Y-104730996D01*
X74019722Y-104730997D01*
X74019721Y-104730997D01*
X73637546Y-104889299D01*
X73231833Y-104970000D01*
X72818167Y-104970000D01*
X72412454Y-104889299D01*
X72030279Y-104730997D01*
X72030278Y-104730997D01*
X72030277Y-104730996D01*
X71686328Y-104501177D01*
X71393823Y-104208672D01*
X71164004Y-103864723D01*
X71100675Y-103711833D01*
X71005701Y-103482546D01*
X70925000Y-103076833D01*
X70925000Y-102663167D01*
X71005701Y-102257454D01*
X71164003Y-101875279D01*
X71164976Y-101873823D01*
X71393823Y-101531328D01*
X71686328Y-101238823D01*
X72030277Y-101009004D01*
X72030279Y-101009003D01*
X72412454Y-100850701D01*
X72818167Y-100770000D01*
X73231833Y-100770000D01*
X73637546Y-100850701D01*
X73637546Y-100850701D01*
G37*
G36*
X143041823Y-97586313D02*
G01*
X143202242Y-97634976D01*
X143334906Y-97705886D01*
X143350078Y-97713996D01*
X143479659Y-97820341D01*
X143586004Y-97949922D01*
X143586005Y-97949924D01*
X143665024Y-98097758D01*
X143713687Y-98258177D01*
X143730117Y-98425000D01*
X143713687Y-98591823D01*
X143665024Y-98752242D01*
X143594114Y-98884906D01*
X143586004Y-98900078D01*
X143479659Y-99029659D01*
X143350078Y-99136004D01*
X143350076Y-99136005D01*
X143202242Y-99215024D01*
X143041823Y-99263687D01*
X142916804Y-99276000D01*
X142833196Y-99276000D01*
X142708177Y-99263687D01*
X142547758Y-99215024D01*
X142399924Y-99136005D01*
X142399922Y-99136004D01*
X142270341Y-99029659D01*
X142163996Y-98900078D01*
X142155886Y-98884906D01*
X142084976Y-98752242D01*
X142036313Y-98591823D01*
X142019883Y-98425000D01*
X142036313Y-98258177D01*
X142084976Y-98097758D01*
X142163995Y-97949924D01*
X142163996Y-97949922D01*
X142270341Y-97820341D01*
X142399922Y-97713996D01*
X142415094Y-97705886D01*
X142547758Y-97634976D01*
X142708177Y-97586313D01*
X142833196Y-97574000D01*
X142916804Y-97574000D01*
X143041823Y-97586313D01*
X143041823Y-97586313D01*
G37*
G36*
X137961823Y-97586313D02*
G01*
X138122242Y-97634976D01*
X138254906Y-97705886D01*
X138270078Y-97713996D01*
X138399659Y-97820341D01*
X138506004Y-97949922D01*
X138506005Y-97949924D01*
X138585024Y-98097758D01*
X138633687Y-98258177D01*
X138650117Y-98425000D01*
X138633687Y-98591823D01*
X138585024Y-98752242D01*
X138514114Y-98884906D01*
X138506004Y-98900078D01*
X138399659Y-99029659D01*
X138270078Y-99136004D01*
X138270076Y-99136005D01*
X138122242Y-99215024D01*
X137961823Y-99263687D01*
X137836804Y-99276000D01*
X137753196Y-99276000D01*
X137628177Y-99263687D01*
X137467758Y-99215024D01*
X137319924Y-99136005D01*
X137319922Y-99136004D01*
X137190341Y-99029659D01*
X137083996Y-98900078D01*
X137075886Y-98884906D01*
X137004976Y-98752242D01*
X136956313Y-98591823D01*
X136939883Y-98425000D01*
X136956313Y-98258177D01*
X137004976Y-98097758D01*
X137083995Y-97949924D01*
X137083996Y-97949922D01*
X137190341Y-97820341D01*
X137319922Y-97713996D01*
X137335094Y-97705886D01*
X137467758Y-97634976D01*
X137628177Y-97586313D01*
X137753196Y-97574000D01*
X137836804Y-97574000D01*
X137961823Y-97586313D01*
X137961823Y-97586313D01*
G37*
G36*
X90971823Y-97586313D02*
G01*
X91132242Y-97634976D01*
X91264906Y-97705886D01*
X91280078Y-97713996D01*
X91409659Y-97820341D01*
X91516004Y-97949922D01*
X91516005Y-97949924D01*
X91595024Y-98097758D01*
X91643687Y-98258177D01*
X91660117Y-98425000D01*
X91643687Y-98591823D01*
X91595024Y-98752242D01*
X91524114Y-98884906D01*
X91516004Y-98900078D01*
X91409659Y-99029659D01*
X91280078Y-99136004D01*
X91280076Y-99136005D01*
X91132242Y-99215024D01*
X90971823Y-99263687D01*
X90846804Y-99276000D01*
X90763196Y-99276000D01*
X90638177Y-99263687D01*
X90477758Y-99215024D01*
X90329924Y-99136005D01*
X90329922Y-99136004D01*
X90200341Y-99029659D01*
X90093996Y-98900078D01*
X90085886Y-98884906D01*
X90014976Y-98752242D01*
X89966313Y-98591823D01*
X89949883Y-98425000D01*
X89966313Y-98258177D01*
X90014976Y-98097758D01*
X90093995Y-97949924D01*
X90093996Y-97949922D01*
X90200341Y-97820341D01*
X90329922Y-97713996D01*
X90345094Y-97705886D01*
X90477758Y-97634976D01*
X90638177Y-97586313D01*
X90763196Y-97574000D01*
X90846804Y-97574000D01*
X90971823Y-97586313D01*
X90971823Y-97586313D01*
G37*
G36*
X96051823Y-97586313D02*
G01*
X96212242Y-97634976D01*
X96344906Y-97705886D01*
X96360078Y-97713996D01*
X96489659Y-97820341D01*
X96596004Y-97949922D01*
X96596005Y-97949924D01*
X96675024Y-98097758D01*
X96723687Y-98258177D01*
X96740117Y-98425000D01*
X96723687Y-98591823D01*
X96675024Y-98752242D01*
X96604114Y-98884906D01*
X96596004Y-98900078D01*
X96489659Y-99029659D01*
X96360078Y-99136004D01*
X96360076Y-99136005D01*
X96212242Y-99215024D01*
X96051823Y-99263687D01*
X95926804Y-99276000D01*
X95843196Y-99276000D01*
X95718177Y-99263687D01*
X95557758Y-99215024D01*
X95409924Y-99136005D01*
X95409922Y-99136004D01*
X95280341Y-99029659D01*
X95173996Y-98900078D01*
X95165886Y-98884906D01*
X95094976Y-98752242D01*
X95046313Y-98591823D01*
X95029883Y-98425000D01*
X95046313Y-98258177D01*
X95094976Y-98097758D01*
X95173995Y-97949924D01*
X95173996Y-97949922D01*
X95280341Y-97820341D01*
X95409922Y-97713996D01*
X95425094Y-97705886D01*
X95557758Y-97634976D01*
X95718177Y-97586313D01*
X95843196Y-97574000D01*
X95926804Y-97574000D01*
X96051823Y-97586313D01*
X96051823Y-97586313D01*
G37*
G36*
X131026000Y-99276000D02*
G01*
X129324000Y-99276000D01*
X129324000Y-97574000D01*
X131026000Y-97574000D01*
X131026000Y-99276000D01*
X131026000Y-99276000D01*
G37*
G36*
X135421823Y-97586313D02*
G01*
X135582242Y-97634976D01*
X135714906Y-97705886D01*
X135730078Y-97713996D01*
X135859659Y-97820341D01*
X135966004Y-97949922D01*
X135966005Y-97949924D01*
X136045024Y-98097758D01*
X136093687Y-98258177D01*
X136110117Y-98425000D01*
X136093687Y-98591823D01*
X136045024Y-98752242D01*
X135974114Y-98884906D01*
X135966004Y-98900078D01*
X135859659Y-99029659D01*
X135730078Y-99136004D01*
X135730076Y-99136005D01*
X135582242Y-99215024D01*
X135421823Y-99263687D01*
X135296804Y-99276000D01*
X135213196Y-99276000D01*
X135088177Y-99263687D01*
X134927758Y-99215024D01*
X134779924Y-99136005D01*
X134779922Y-99136004D01*
X134650341Y-99029659D01*
X134543996Y-98900078D01*
X134535886Y-98884906D01*
X134464976Y-98752242D01*
X134416313Y-98591823D01*
X134399883Y-98425000D01*
X134416313Y-98258177D01*
X134464976Y-98097758D01*
X134543995Y-97949924D01*
X134543996Y-97949922D01*
X134650341Y-97820341D01*
X134779922Y-97713996D01*
X134795094Y-97705886D01*
X134927758Y-97634976D01*
X135088177Y-97586313D01*
X135213196Y-97574000D01*
X135296804Y-97574000D01*
X135421823Y-97586313D01*
X135421823Y-97586313D01*
G37*
G36*
X140501823Y-97586313D02*
G01*
X140662242Y-97634976D01*
X140794906Y-97705886D01*
X140810078Y-97713996D01*
X140939659Y-97820341D01*
X141046004Y-97949922D01*
X141046005Y-97949924D01*
X141125024Y-98097758D01*
X141173687Y-98258177D01*
X141190117Y-98425000D01*
X141173687Y-98591823D01*
X141125024Y-98752242D01*
X141054114Y-98884906D01*
X141046004Y-98900078D01*
X140939659Y-99029659D01*
X140810078Y-99136004D01*
X140810076Y-99136005D01*
X140662242Y-99215024D01*
X140501823Y-99263687D01*
X140376804Y-99276000D01*
X140293196Y-99276000D01*
X140168177Y-99263687D01*
X140007758Y-99215024D01*
X139859924Y-99136005D01*
X139859922Y-99136004D01*
X139730341Y-99029659D01*
X139623996Y-98900078D01*
X139615886Y-98884906D01*
X139544976Y-98752242D01*
X139496313Y-98591823D01*
X139479883Y-98425000D01*
X139496313Y-98258177D01*
X139544976Y-98097758D01*
X139623995Y-97949924D01*
X139623996Y-97949922D01*
X139730341Y-97820341D01*
X139859922Y-97713996D01*
X139875094Y-97705886D01*
X140007758Y-97634976D01*
X140168177Y-97586313D01*
X140293196Y-97574000D01*
X140376804Y-97574000D01*
X140501823Y-97586313D01*
X140501823Y-97586313D01*
G37*
G36*
X145581823Y-97586313D02*
G01*
X145742242Y-97634976D01*
X145874906Y-97705886D01*
X145890078Y-97713996D01*
X146019659Y-97820341D01*
X146126004Y-97949922D01*
X146126005Y-97949924D01*
X146205024Y-98097758D01*
X146253687Y-98258177D01*
X146270117Y-98425000D01*
X146253687Y-98591823D01*
X146205024Y-98752242D01*
X146134114Y-98884906D01*
X146126004Y-98900078D01*
X146019659Y-99029659D01*
X145890078Y-99136004D01*
X145890076Y-99136005D01*
X145742242Y-99215024D01*
X145581823Y-99263687D01*
X145456804Y-99276000D01*
X145373196Y-99276000D01*
X145248177Y-99263687D01*
X145087758Y-99215024D01*
X144939924Y-99136005D01*
X144939922Y-99136004D01*
X144810341Y-99029659D01*
X144703996Y-98900078D01*
X144695886Y-98884906D01*
X144624976Y-98752242D01*
X144576313Y-98591823D01*
X144559883Y-98425000D01*
X144576313Y-98258177D01*
X144624976Y-98097758D01*
X144703995Y-97949924D01*
X144703996Y-97949922D01*
X144810341Y-97820341D01*
X144939922Y-97713996D01*
X144955094Y-97705886D01*
X145087758Y-97634976D01*
X145248177Y-97586313D01*
X145373196Y-97574000D01*
X145456804Y-97574000D01*
X145581823Y-97586313D01*
X145581823Y-97586313D01*
G37*
G36*
X132881823Y-97586313D02*
G01*
X133042242Y-97634976D01*
X133174906Y-97705886D01*
X133190078Y-97713996D01*
X133319659Y-97820341D01*
X133426004Y-97949922D01*
X133426005Y-97949924D01*
X133505024Y-98097758D01*
X133553687Y-98258177D01*
X133570117Y-98425000D01*
X133553687Y-98591823D01*
X133505024Y-98752242D01*
X133434114Y-98884906D01*
X133426004Y-98900078D01*
X133319659Y-99029659D01*
X133190078Y-99136004D01*
X133190076Y-99136005D01*
X133042242Y-99215024D01*
X132881823Y-99263687D01*
X132756804Y-99276000D01*
X132673196Y-99276000D01*
X132548177Y-99263687D01*
X132387758Y-99215024D01*
X132239924Y-99136005D01*
X132239922Y-99136004D01*
X132110341Y-99029659D01*
X132003996Y-98900078D01*
X131995886Y-98884906D01*
X131924976Y-98752242D01*
X131876313Y-98591823D01*
X131859883Y-98425000D01*
X131876313Y-98258177D01*
X131924976Y-98097758D01*
X132003995Y-97949924D01*
X132003996Y-97949922D01*
X132110341Y-97820341D01*
X132239922Y-97713996D01*
X132255094Y-97705886D01*
X132387758Y-97634976D01*
X132548177Y-97586313D01*
X132673196Y-97574000D01*
X132756804Y-97574000D01*
X132881823Y-97586313D01*
X132881823Y-97586313D01*
G37*
G36*
X112561823Y-96951313D02*
G01*
X112722242Y-96999976D01*
X112789361Y-97035852D01*
X112870078Y-97078996D01*
X112999659Y-97185341D01*
X113106004Y-97314922D01*
X113106005Y-97314924D01*
X113185024Y-97462758D01*
X113233687Y-97623177D01*
X113250117Y-97790000D01*
X113233687Y-97956823D01*
X113185024Y-98117242D01*
X113144477Y-98193100D01*
X113106004Y-98265078D01*
X112999659Y-98394659D01*
X112870078Y-98501004D01*
X112870076Y-98501005D01*
X112722242Y-98580024D01*
X112561823Y-98628687D01*
X112436804Y-98641000D01*
X112353196Y-98641000D01*
X112228177Y-98628687D01*
X112067758Y-98580024D01*
X111919924Y-98501005D01*
X111919922Y-98501004D01*
X111790341Y-98394659D01*
X111683996Y-98265078D01*
X111645523Y-98193100D01*
X111604976Y-98117242D01*
X111556313Y-97956823D01*
X111539883Y-97790000D01*
X111556313Y-97623177D01*
X111604976Y-97462758D01*
X111683995Y-97314924D01*
X111683996Y-97314922D01*
X111790341Y-97185341D01*
X111919922Y-97078996D01*
X112000639Y-97035852D01*
X112067758Y-96999976D01*
X112228177Y-96951313D01*
X112353196Y-96939000D01*
X112436804Y-96939000D01*
X112561823Y-96951313D01*
X112561823Y-96951313D01*
G37*
G36*
X77636823Y-96951313D02*
G01*
X77797242Y-96999976D01*
X77864361Y-97035852D01*
X77945078Y-97078996D01*
X78074659Y-97185341D01*
X78181004Y-97314922D01*
X78181005Y-97314924D01*
X78260024Y-97462758D01*
X78308687Y-97623177D01*
X78325117Y-97790000D01*
X78308687Y-97956823D01*
X78260024Y-98117242D01*
X78219477Y-98193100D01*
X78181004Y-98265078D01*
X78074659Y-98394659D01*
X77945078Y-98501004D01*
X77945076Y-98501005D01*
X77797242Y-98580024D01*
X77636823Y-98628687D01*
X77511804Y-98641000D01*
X77428196Y-98641000D01*
X77303177Y-98628687D01*
X77142758Y-98580024D01*
X76994924Y-98501005D01*
X76994922Y-98501004D01*
X76865341Y-98394659D01*
X76758996Y-98265078D01*
X76720523Y-98193100D01*
X76679976Y-98117242D01*
X76631313Y-97956823D01*
X76614883Y-97790000D01*
X76631313Y-97623177D01*
X76679976Y-97462758D01*
X76758995Y-97314924D01*
X76758996Y-97314922D01*
X76865341Y-97185341D01*
X76994922Y-97078996D01*
X77075639Y-97035852D01*
X77142758Y-96999976D01*
X77303177Y-96951313D01*
X77428196Y-96939000D01*
X77511804Y-96939000D01*
X77636823Y-96951313D01*
X77636823Y-96951313D01*
G37*
G36*
X85256823Y-96951313D02*
G01*
X85417242Y-96999976D01*
X85484361Y-97035852D01*
X85565078Y-97078996D01*
X85694659Y-97185341D01*
X85801004Y-97314922D01*
X85801005Y-97314924D01*
X85880024Y-97462758D01*
X85928687Y-97623177D01*
X85945117Y-97790000D01*
X85928687Y-97956823D01*
X85880024Y-98117242D01*
X85839477Y-98193100D01*
X85801004Y-98265078D01*
X85694659Y-98394659D01*
X85565078Y-98501004D01*
X85565076Y-98501005D01*
X85417242Y-98580024D01*
X85256823Y-98628687D01*
X85131804Y-98641000D01*
X85048196Y-98641000D01*
X84923177Y-98628687D01*
X84762758Y-98580024D01*
X84614924Y-98501005D01*
X84614922Y-98501004D01*
X84485341Y-98394659D01*
X84378996Y-98265078D01*
X84340523Y-98193100D01*
X84299976Y-98117242D01*
X84251313Y-97956823D01*
X84234883Y-97790000D01*
X84251313Y-97623177D01*
X84299976Y-97462758D01*
X84378995Y-97314924D01*
X84378996Y-97314922D01*
X84485341Y-97185341D01*
X84614922Y-97078996D01*
X84695639Y-97035852D01*
X84762758Y-96999976D01*
X84923177Y-96951313D01*
X85048196Y-96939000D01*
X85131804Y-96939000D01*
X85256823Y-96951313D01*
X85256823Y-96951313D01*
G37*
G36*
X122803228Y-96971703D02*
G01*
X122958100Y-97035853D01*
X123097481Y-97128985D01*
X123216015Y-97247519D01*
X123309147Y-97386900D01*
X123373297Y-97541772D01*
X123406000Y-97706184D01*
X123406000Y-97873816D01*
X123373297Y-98038228D01*
X123309147Y-98193100D01*
X123216015Y-98332481D01*
X123097481Y-98451015D01*
X122958100Y-98544147D01*
X122803228Y-98608297D01*
X122638816Y-98641000D01*
X122471184Y-98641000D01*
X122306772Y-98608297D01*
X122151900Y-98544147D01*
X122012519Y-98451015D01*
X121893985Y-98332481D01*
X121800853Y-98193100D01*
X121736703Y-98038228D01*
X121704000Y-97873816D01*
X121704000Y-97706184D01*
X121736703Y-97541772D01*
X121800853Y-97386900D01*
X121893985Y-97247519D01*
X122012519Y-97128985D01*
X122151900Y-97035853D01*
X122306772Y-96971703D01*
X122471184Y-96939000D01*
X122638816Y-96939000D01*
X122803228Y-96971703D01*
X122803228Y-96971703D01*
G37*
G36*
X65621000Y-96736000D02*
G01*
X63919000Y-96736000D01*
X63919000Y-95034000D01*
X65621000Y-95034000D01*
X65621000Y-96736000D01*
X65621000Y-96736000D01*
G37*
G36*
X72638228Y-94986703D02*
G01*
X72793100Y-95050853D01*
X72932481Y-95143985D01*
X73051015Y-95262519D01*
X73144147Y-95401900D01*
X73208297Y-95556772D01*
X73241000Y-95721184D01*
X73241000Y-95888816D01*
X73208297Y-96053228D01*
X73144147Y-96208100D01*
X73051015Y-96347481D01*
X72932481Y-96466015D01*
X72793100Y-96559147D01*
X72638228Y-96623297D01*
X72473816Y-96656000D01*
X72306184Y-96656000D01*
X72141772Y-96623297D01*
X71986900Y-96559147D01*
X71847519Y-96466015D01*
X71728985Y-96347481D01*
X71635853Y-96208100D01*
X71571703Y-96053228D01*
X71539000Y-95888816D01*
X71539000Y-95721184D01*
X71571703Y-95556772D01*
X71635853Y-95401900D01*
X71728985Y-95262519D01*
X71847519Y-95143985D01*
X71986900Y-95050853D01*
X72141772Y-94986703D01*
X72306184Y-94954000D01*
X72473816Y-94954000D01*
X72638228Y-94986703D01*
X72638228Y-94986703D01*
G37*
G36*
X85256823Y-94411313D02*
G01*
X85417242Y-94459976D01*
X85549906Y-94530886D01*
X85565078Y-94538996D01*
X85694659Y-94645341D01*
X85801004Y-94774922D01*
X85801005Y-94774924D01*
X85880024Y-94922758D01*
X85928687Y-95083177D01*
X85945117Y-95250000D01*
X85928687Y-95416823D01*
X85880024Y-95577242D01*
X85809114Y-95709906D01*
X85801004Y-95725078D01*
X85694659Y-95854659D01*
X85565078Y-95961004D01*
X85565076Y-95961005D01*
X85417242Y-96040024D01*
X85256823Y-96088687D01*
X85131804Y-96101000D01*
X85048196Y-96101000D01*
X84923177Y-96088687D01*
X84762758Y-96040024D01*
X84614924Y-95961005D01*
X84614922Y-95961004D01*
X84485341Y-95854659D01*
X84378996Y-95725078D01*
X84370886Y-95709906D01*
X84299976Y-95577242D01*
X84251313Y-95416823D01*
X84234883Y-95250000D01*
X84251313Y-95083177D01*
X84299976Y-94922758D01*
X84378995Y-94774924D01*
X84378996Y-94774922D01*
X84485341Y-94645341D01*
X84614922Y-94538996D01*
X84630094Y-94530886D01*
X84762758Y-94459976D01*
X84923177Y-94411313D01*
X85048196Y-94399000D01*
X85131804Y-94399000D01*
X85256823Y-94411313D01*
X85256823Y-94411313D01*
G37*
G36*
X77636823Y-94411313D02*
G01*
X77797242Y-94459976D01*
X77929906Y-94530886D01*
X77945078Y-94538996D01*
X78074659Y-94645341D01*
X78181004Y-94774922D01*
X78181005Y-94774924D01*
X78260024Y-94922758D01*
X78308687Y-95083177D01*
X78325117Y-95250000D01*
X78308687Y-95416823D01*
X78260024Y-95577242D01*
X78189114Y-95709906D01*
X78181004Y-95725078D01*
X78074659Y-95854659D01*
X77945078Y-95961004D01*
X77945076Y-95961005D01*
X77797242Y-96040024D01*
X77636823Y-96088687D01*
X77511804Y-96101000D01*
X77428196Y-96101000D01*
X77303177Y-96088687D01*
X77142758Y-96040024D01*
X76994924Y-95961005D01*
X76994922Y-95961004D01*
X76865341Y-95854659D01*
X76758996Y-95725078D01*
X76750886Y-95709906D01*
X76679976Y-95577242D01*
X76631313Y-95416823D01*
X76614883Y-95250000D01*
X76631313Y-95083177D01*
X76679976Y-94922758D01*
X76758995Y-94774924D01*
X76758996Y-94774922D01*
X76865341Y-94645341D01*
X76994922Y-94538996D01*
X77010094Y-94530886D01*
X77142758Y-94459976D01*
X77303177Y-94411313D01*
X77428196Y-94399000D01*
X77511804Y-94399000D01*
X77636823Y-94411313D01*
X77636823Y-94411313D01*
G37*
G36*
X106324600Y-94894600D02*
G01*
X104495400Y-94894600D01*
X104495400Y-93065400D01*
X106324600Y-93065400D01*
X106324600Y-94894600D01*
X106324600Y-94894600D01*
G37*
G36*
X103049294Y-93078633D02*
G01*
X103221695Y-93130931D01*
X103380583Y-93215858D01*
X103519849Y-93330151D01*
X103634142Y-93469417D01*
X103719069Y-93628305D01*
X103771367Y-93800706D01*
X103789025Y-93980000D01*
X103771367Y-94159294D01*
X103719069Y-94331695D01*
X103634142Y-94490583D01*
X103519849Y-94629849D01*
X103380583Y-94744142D01*
X103221695Y-94829069D01*
X103049294Y-94881367D01*
X102914931Y-94894600D01*
X102825069Y-94894600D01*
X102690706Y-94881367D01*
X102518305Y-94829069D01*
X102359417Y-94744142D01*
X102220151Y-94629849D01*
X102105858Y-94490583D01*
X102020931Y-94331695D01*
X101968633Y-94159294D01*
X101950975Y-93980000D01*
X101968633Y-93800706D01*
X102020931Y-93628305D01*
X102105858Y-93469417D01*
X102220151Y-93330151D01*
X102359417Y-93215858D01*
X102518305Y-93130931D01*
X102690706Y-93078633D01*
X102825069Y-93065400D01*
X102914931Y-93065400D01*
X103049294Y-93078633D01*
X103049294Y-93078633D01*
G37*
G36*
X155119294Y-92443633D02*
G01*
X155291695Y-92495931D01*
X155450583Y-92580858D01*
X155589849Y-92695151D01*
X155704142Y-92834417D01*
X155789069Y-92993305D01*
X155841367Y-93165706D01*
X155859025Y-93345000D01*
X155841367Y-93524294D01*
X155789069Y-93696695D01*
X155704142Y-93855583D01*
X155589849Y-93994849D01*
X155450583Y-94109142D01*
X155291695Y-94194069D01*
X155119294Y-94246367D01*
X154984931Y-94259600D01*
X154895069Y-94259600D01*
X154760706Y-94246367D01*
X154588305Y-94194069D01*
X154429417Y-94109142D01*
X154290151Y-93994849D01*
X154175858Y-93855583D01*
X154090931Y-93696695D01*
X154038633Y-93524294D01*
X154020975Y-93345000D01*
X154038633Y-93165706D01*
X154090931Y-92993305D01*
X154175858Y-92834417D01*
X154290151Y-92695151D01*
X154429417Y-92580858D01*
X154588305Y-92495931D01*
X154760706Y-92443633D01*
X154895069Y-92430400D01*
X154984931Y-92430400D01*
X155119294Y-92443633D01*
X155119294Y-92443633D01*
G37*
G36*
X158394600Y-94259600D02*
G01*
X156565400Y-94259600D01*
X156565400Y-92430400D01*
X158394600Y-92430400D01*
X158394600Y-94259600D01*
X158394600Y-94259600D01*
G37*
G36*
X65018228Y-92566703D02*
G01*
X65173100Y-92630853D01*
X65312481Y-92723985D01*
X65431015Y-92842519D01*
X65524147Y-92981900D01*
X65588297Y-93136772D01*
X65621000Y-93301184D01*
X65621000Y-93468816D01*
X65588297Y-93633228D01*
X65524147Y-93788100D01*
X65431015Y-93927481D01*
X65312481Y-94046015D01*
X65173100Y-94139147D01*
X65018228Y-94203297D01*
X64853816Y-94236000D01*
X64686184Y-94236000D01*
X64521772Y-94203297D01*
X64366900Y-94139147D01*
X64227519Y-94046015D01*
X64108985Y-93927481D01*
X64015853Y-93788100D01*
X63951703Y-93633228D01*
X63919000Y-93468816D01*
X63919000Y-93301184D01*
X63951703Y-93136772D01*
X64015853Y-92981900D01*
X64108985Y-92842519D01*
X64227519Y-92723985D01*
X64366900Y-92630853D01*
X64521772Y-92566703D01*
X64686184Y-92534000D01*
X64853816Y-92534000D01*
X65018228Y-92566703D01*
X65018228Y-92566703D01*
G37*
G36*
X112561823Y-92506313D02*
G01*
X112722242Y-92554976D01*
X112789361Y-92590852D01*
X112870078Y-92633996D01*
X112999659Y-92740341D01*
X113106004Y-92869922D01*
X113106005Y-92869924D01*
X113185024Y-93017758D01*
X113233687Y-93178177D01*
X113250117Y-93345000D01*
X113233687Y-93511823D01*
X113185024Y-93672242D01*
X113116358Y-93800706D01*
X113106004Y-93820078D01*
X112999659Y-93949659D01*
X112870078Y-94056004D01*
X112870076Y-94056005D01*
X112722242Y-94135024D01*
X112722239Y-94135025D01*
X112708647Y-94139148D01*
X112561823Y-94183687D01*
X112436804Y-94196000D01*
X112353196Y-94196000D01*
X112228177Y-94183687D01*
X112081353Y-94139148D01*
X112067761Y-94135025D01*
X112067758Y-94135024D01*
X111919924Y-94056005D01*
X111919922Y-94056004D01*
X111790341Y-93949659D01*
X111683996Y-93820078D01*
X111673642Y-93800706D01*
X111604976Y-93672242D01*
X111556313Y-93511823D01*
X111539883Y-93345000D01*
X111556313Y-93178177D01*
X111604976Y-93017758D01*
X111683995Y-92869924D01*
X111683996Y-92869922D01*
X111790341Y-92740341D01*
X111919922Y-92633996D01*
X112000639Y-92590852D01*
X112067758Y-92554976D01*
X112228177Y-92506313D01*
X112353196Y-92494000D01*
X112436804Y-92494000D01*
X112561823Y-92506313D01*
X112561823Y-92506313D01*
G37*
G36*
X122803228Y-92526703D02*
G01*
X122958100Y-92590853D01*
X123097481Y-92683985D01*
X123216015Y-92802519D01*
X123309147Y-92941900D01*
X123373297Y-93096772D01*
X123406000Y-93261184D01*
X123406000Y-93428816D01*
X123373297Y-93593228D01*
X123309147Y-93748100D01*
X123216015Y-93887481D01*
X123097481Y-94006015D01*
X122958100Y-94099147D01*
X122803228Y-94163297D01*
X122638816Y-94196000D01*
X122471184Y-94196000D01*
X122306772Y-94163297D01*
X122151900Y-94099147D01*
X122012519Y-94006015D01*
X121893985Y-93887481D01*
X121800853Y-93748100D01*
X121736703Y-93593228D01*
X121704000Y-93428816D01*
X121704000Y-93261184D01*
X121736703Y-93096772D01*
X121800853Y-92941900D01*
X121893985Y-92802519D01*
X122012519Y-92683985D01*
X122151900Y-92590853D01*
X122306772Y-92526703D01*
X122471184Y-92494000D01*
X122638816Y-92494000D01*
X122803228Y-92526703D01*
X122803228Y-92526703D01*
G37*
G36*
X77636823Y-91871313D02*
G01*
X77797242Y-91919976D01*
X77929906Y-91990886D01*
X77945078Y-91998996D01*
X78074659Y-92105341D01*
X78181004Y-92234922D01*
X78181005Y-92234924D01*
X78260024Y-92382758D01*
X78308687Y-92543177D01*
X78325117Y-92710000D01*
X78308687Y-92876823D01*
X78260024Y-93037242D01*
X78206824Y-93136772D01*
X78181004Y-93185078D01*
X78074659Y-93314659D01*
X77945078Y-93421004D01*
X77945076Y-93421005D01*
X77797242Y-93500024D01*
X77636823Y-93548687D01*
X77511804Y-93561000D01*
X77428196Y-93561000D01*
X77303177Y-93548687D01*
X77142758Y-93500024D01*
X76994924Y-93421005D01*
X76994922Y-93421004D01*
X76865341Y-93314659D01*
X76758996Y-93185078D01*
X76733176Y-93136772D01*
X76679976Y-93037242D01*
X76631313Y-92876823D01*
X76614883Y-92710000D01*
X76631313Y-92543177D01*
X76679976Y-92382758D01*
X76758995Y-92234924D01*
X76758996Y-92234922D01*
X76865341Y-92105341D01*
X76994922Y-91998996D01*
X77010094Y-91990886D01*
X77142758Y-91919976D01*
X77303177Y-91871313D01*
X77428196Y-91859000D01*
X77511804Y-91859000D01*
X77636823Y-91871313D01*
X77636823Y-91871313D01*
G37*
G36*
X85256823Y-91871313D02*
G01*
X85417242Y-91919976D01*
X85549906Y-91990886D01*
X85565078Y-91998996D01*
X85694659Y-92105341D01*
X85801004Y-92234922D01*
X85801005Y-92234924D01*
X85880024Y-92382758D01*
X85928687Y-92543177D01*
X85945117Y-92710000D01*
X85928687Y-92876823D01*
X85880024Y-93037242D01*
X85826824Y-93136772D01*
X85801004Y-93185078D01*
X85694659Y-93314659D01*
X85565078Y-93421004D01*
X85565076Y-93421005D01*
X85417242Y-93500024D01*
X85256823Y-93548687D01*
X85131804Y-93561000D01*
X85048196Y-93561000D01*
X84923177Y-93548687D01*
X84762758Y-93500024D01*
X84614924Y-93421005D01*
X84614922Y-93421004D01*
X84485341Y-93314659D01*
X84378996Y-93185078D01*
X84353176Y-93136772D01*
X84299976Y-93037242D01*
X84251313Y-92876823D01*
X84234883Y-92710000D01*
X84251313Y-92543177D01*
X84299976Y-92382758D01*
X84378995Y-92234924D01*
X84378996Y-92234922D01*
X84485341Y-92105341D01*
X84614922Y-91998996D01*
X84630094Y-91990886D01*
X84762758Y-91919976D01*
X84923177Y-91871313D01*
X85048196Y-91859000D01*
X85131804Y-91859000D01*
X85256823Y-91871313D01*
X85256823Y-91871313D01*
G37*
G36*
X103049294Y-90538633D02*
G01*
X103221695Y-90590931D01*
X103380583Y-90675858D01*
X103519849Y-90790151D01*
X103634142Y-90929417D01*
X103719069Y-91088305D01*
X103771367Y-91260706D01*
X103789025Y-91440000D01*
X103771367Y-91619294D01*
X103719069Y-91791695D01*
X103634142Y-91950583D01*
X103519849Y-92089849D01*
X103380583Y-92204142D01*
X103221695Y-92289069D01*
X103049294Y-92341367D01*
X102914931Y-92354600D01*
X102825069Y-92354600D01*
X102690706Y-92341367D01*
X102518305Y-92289069D01*
X102359417Y-92204142D01*
X102220151Y-92089849D01*
X102105858Y-91950583D01*
X102020931Y-91791695D01*
X101968633Y-91619294D01*
X101950975Y-91440000D01*
X101968633Y-91260706D01*
X102020931Y-91088305D01*
X102105858Y-90929417D01*
X102220151Y-90790151D01*
X102359417Y-90675858D01*
X102518305Y-90590931D01*
X102690706Y-90538633D01*
X102825069Y-90525400D01*
X102914931Y-90525400D01*
X103049294Y-90538633D01*
X103049294Y-90538633D01*
G37*
G36*
X105589294Y-90538633D02*
G01*
X105761695Y-90590931D01*
X105920583Y-90675858D01*
X106059849Y-90790151D01*
X106174142Y-90929417D01*
X106259069Y-91088305D01*
X106311367Y-91260706D01*
X106329025Y-91440000D01*
X106311367Y-91619294D01*
X106259069Y-91791695D01*
X106174142Y-91950583D01*
X106059849Y-92089849D01*
X105920583Y-92204142D01*
X105761695Y-92289069D01*
X105589294Y-92341367D01*
X105454931Y-92354600D01*
X105365069Y-92354600D01*
X105230706Y-92341367D01*
X105058305Y-92289069D01*
X104899417Y-92204142D01*
X104760151Y-92089849D01*
X104645858Y-91950583D01*
X104560931Y-91791695D01*
X104508633Y-91619294D01*
X104490975Y-91440000D01*
X104508633Y-91260706D01*
X104560931Y-91088305D01*
X104645858Y-90929417D01*
X104760151Y-90790151D01*
X104899417Y-90675858D01*
X105058305Y-90590931D01*
X105230706Y-90538633D01*
X105365069Y-90525400D01*
X105454931Y-90525400D01*
X105589294Y-90538633D01*
X105589294Y-90538633D01*
G37*
G36*
X165983228Y-90621703D02*
G01*
X166138100Y-90685853D01*
X166277481Y-90778985D01*
X166396015Y-90897519D01*
X166489147Y-91036900D01*
X166553297Y-91191772D01*
X166586000Y-91356184D01*
X166586000Y-91523816D01*
X166553297Y-91688228D01*
X166489147Y-91843100D01*
X166396015Y-91982481D01*
X166277481Y-92101015D01*
X166138100Y-92194147D01*
X165983228Y-92258297D01*
X165818816Y-92291000D01*
X165651184Y-92291000D01*
X165486772Y-92258297D01*
X165331900Y-92194147D01*
X165192519Y-92101015D01*
X165073985Y-91982481D01*
X164980853Y-91843100D01*
X164916703Y-91688228D01*
X164884000Y-91523816D01*
X164884000Y-91356184D01*
X164916703Y-91191772D01*
X164980853Y-91036900D01*
X165073985Y-90897519D01*
X165192519Y-90778985D01*
X165331900Y-90685853D01*
X165486772Y-90621703D01*
X165651184Y-90589000D01*
X165818816Y-90589000D01*
X165983228Y-90621703D01*
X165983228Y-90621703D01*
G37*
G36*
X155119294Y-89903633D02*
G01*
X155291695Y-89955931D01*
X155450583Y-90040858D01*
X155589849Y-90155151D01*
X155704142Y-90294417D01*
X155789069Y-90453305D01*
X155841367Y-90625706D01*
X155859025Y-90805000D01*
X155841367Y-90984294D01*
X155789069Y-91156695D01*
X155704142Y-91315583D01*
X155589849Y-91454849D01*
X155450583Y-91569142D01*
X155291695Y-91654069D01*
X155119294Y-91706367D01*
X154984931Y-91719600D01*
X154895069Y-91719600D01*
X154760706Y-91706367D01*
X154588305Y-91654069D01*
X154429417Y-91569142D01*
X154290151Y-91454849D01*
X154175858Y-91315583D01*
X154090931Y-91156695D01*
X154038633Y-90984294D01*
X154020975Y-90805000D01*
X154038633Y-90625706D01*
X154090931Y-90453305D01*
X154175858Y-90294417D01*
X154290151Y-90155151D01*
X154429417Y-90040858D01*
X154588305Y-89955931D01*
X154760706Y-89903633D01*
X154895069Y-89890400D01*
X154984931Y-89890400D01*
X155119294Y-89903633D01*
X155119294Y-89903633D01*
G37*
G36*
X157659294Y-89903633D02*
G01*
X157831695Y-89955931D01*
X157990583Y-90040858D01*
X158129849Y-90155151D01*
X158244142Y-90294417D01*
X158329069Y-90453305D01*
X158381367Y-90625706D01*
X158399025Y-90805000D01*
X158381367Y-90984294D01*
X158329069Y-91156695D01*
X158244142Y-91315583D01*
X158129849Y-91454849D01*
X157990583Y-91569142D01*
X157831695Y-91654069D01*
X157659294Y-91706367D01*
X157524931Y-91719600D01*
X157435069Y-91719600D01*
X157300706Y-91706367D01*
X157128305Y-91654069D01*
X156969417Y-91569142D01*
X156830151Y-91454849D01*
X156715858Y-91315583D01*
X156630931Y-91156695D01*
X156578633Y-90984294D01*
X156560975Y-90805000D01*
X156578633Y-90625706D01*
X156630931Y-90453305D01*
X156715858Y-90294417D01*
X156830151Y-90155151D01*
X156969417Y-90040858D01*
X157128305Y-89955931D01*
X157300706Y-89903633D01*
X157435069Y-89890400D01*
X157524931Y-89890400D01*
X157659294Y-89903633D01*
X157659294Y-89903633D01*
G37*
G36*
X72638228Y-89986703D02*
G01*
X72793100Y-90050853D01*
X72932481Y-90143985D01*
X73051015Y-90262519D01*
X73144147Y-90401900D01*
X73208297Y-90556772D01*
X73241000Y-90721184D01*
X73241000Y-90888816D01*
X73208297Y-91053228D01*
X73144147Y-91208100D01*
X73051015Y-91347481D01*
X72932481Y-91466015D01*
X72793100Y-91559147D01*
X72638228Y-91623297D01*
X72473816Y-91656000D01*
X72306184Y-91656000D01*
X72141772Y-91623297D01*
X71986900Y-91559147D01*
X71847519Y-91466015D01*
X71728985Y-91347481D01*
X71635853Y-91208100D01*
X71571703Y-91053228D01*
X71539000Y-90888816D01*
X71539000Y-90721184D01*
X71571703Y-90556772D01*
X71635853Y-90401900D01*
X71728985Y-90262519D01*
X71847519Y-90143985D01*
X71986900Y-90050853D01*
X72141772Y-89986703D01*
X72306184Y-89954000D01*
X72473816Y-89954000D01*
X72638228Y-89986703D01*
X72638228Y-89986703D01*
G37*
G36*
X130341823Y-89966313D02*
G01*
X130502242Y-90014976D01*
X130569361Y-90050852D01*
X130650078Y-90093996D01*
X130779659Y-90200341D01*
X130886004Y-90329922D01*
X130886005Y-90329924D01*
X130965024Y-90477758D01*
X131013687Y-90638177D01*
X131030117Y-90805000D01*
X131013687Y-90971823D01*
X130965024Y-91132242D01*
X130924477Y-91208100D01*
X130886004Y-91280078D01*
X130779659Y-91409659D01*
X130650078Y-91516004D01*
X130650076Y-91516005D01*
X130502242Y-91595024D01*
X130341823Y-91643687D01*
X130216804Y-91656000D01*
X130133196Y-91656000D01*
X130008177Y-91643687D01*
X129847758Y-91595024D01*
X129699924Y-91516005D01*
X129699922Y-91516004D01*
X129570341Y-91409659D01*
X129463996Y-91280078D01*
X129425523Y-91208100D01*
X129384976Y-91132242D01*
X129336313Y-90971823D01*
X129319883Y-90805000D01*
X129336313Y-90638177D01*
X129384976Y-90477758D01*
X129463995Y-90329924D01*
X129463996Y-90329922D01*
X129570341Y-90200341D01*
X129699922Y-90093996D01*
X129780639Y-90050852D01*
X129847758Y-90014976D01*
X130008177Y-89966313D01*
X130133196Y-89954000D01*
X130216804Y-89954000D01*
X130341823Y-89966313D01*
X130341823Y-89966313D01*
G37*
G36*
X132881823Y-89966313D02*
G01*
X133042242Y-90014976D01*
X133109361Y-90050852D01*
X133190078Y-90093996D01*
X133319659Y-90200341D01*
X133426004Y-90329922D01*
X133426005Y-90329924D01*
X133505024Y-90477758D01*
X133553687Y-90638177D01*
X133570117Y-90805000D01*
X133553687Y-90971823D01*
X133505024Y-91132242D01*
X133464477Y-91208100D01*
X133426004Y-91280078D01*
X133319659Y-91409659D01*
X133190078Y-91516004D01*
X133190076Y-91516005D01*
X133042242Y-91595024D01*
X132881823Y-91643687D01*
X132756804Y-91656000D01*
X132673196Y-91656000D01*
X132548177Y-91643687D01*
X132387758Y-91595024D01*
X132239924Y-91516005D01*
X132239922Y-91516004D01*
X132110341Y-91409659D01*
X132003996Y-91280078D01*
X131965523Y-91208100D01*
X131924976Y-91132242D01*
X131876313Y-90971823D01*
X131859883Y-90805000D01*
X131876313Y-90638177D01*
X131924976Y-90477758D01*
X132003995Y-90329924D01*
X132003996Y-90329922D01*
X132110341Y-90200341D01*
X132239922Y-90093996D01*
X132320639Y-90050852D01*
X132387758Y-90014976D01*
X132548177Y-89966313D01*
X132673196Y-89954000D01*
X132756804Y-89954000D01*
X132881823Y-89966313D01*
X132881823Y-89966313D01*
G37*
G36*
X135421823Y-89966313D02*
G01*
X135582242Y-90014976D01*
X135649361Y-90050852D01*
X135730078Y-90093996D01*
X135859659Y-90200341D01*
X135966004Y-90329922D01*
X135966005Y-90329924D01*
X136045024Y-90477758D01*
X136093687Y-90638177D01*
X136110117Y-90805000D01*
X136093687Y-90971823D01*
X136045024Y-91132242D01*
X136004477Y-91208100D01*
X135966004Y-91280078D01*
X135859659Y-91409659D01*
X135730078Y-91516004D01*
X135730076Y-91516005D01*
X135582242Y-91595024D01*
X135421823Y-91643687D01*
X135296804Y-91656000D01*
X135213196Y-91656000D01*
X135088177Y-91643687D01*
X134927758Y-91595024D01*
X134779924Y-91516005D01*
X134779922Y-91516004D01*
X134650341Y-91409659D01*
X134543996Y-91280078D01*
X134505523Y-91208100D01*
X134464976Y-91132242D01*
X134416313Y-90971823D01*
X134399883Y-90805000D01*
X134416313Y-90638177D01*
X134464976Y-90477758D01*
X134543995Y-90329924D01*
X134543996Y-90329922D01*
X134650341Y-90200341D01*
X134779922Y-90093996D01*
X134860639Y-90050852D01*
X134927758Y-90014976D01*
X135088177Y-89966313D01*
X135213196Y-89954000D01*
X135296804Y-89954000D01*
X135421823Y-89966313D01*
X135421823Y-89966313D01*
G37*
G36*
X137961823Y-89966313D02*
G01*
X138122242Y-90014976D01*
X138189361Y-90050852D01*
X138270078Y-90093996D01*
X138399659Y-90200341D01*
X138506004Y-90329922D01*
X138506005Y-90329924D01*
X138585024Y-90477758D01*
X138633687Y-90638177D01*
X138650117Y-90805000D01*
X138633687Y-90971823D01*
X138585024Y-91132242D01*
X138544477Y-91208100D01*
X138506004Y-91280078D01*
X138399659Y-91409659D01*
X138270078Y-91516004D01*
X138270076Y-91516005D01*
X138122242Y-91595024D01*
X137961823Y-91643687D01*
X137836804Y-91656000D01*
X137753196Y-91656000D01*
X137628177Y-91643687D01*
X137467758Y-91595024D01*
X137319924Y-91516005D01*
X137319922Y-91516004D01*
X137190341Y-91409659D01*
X137083996Y-91280078D01*
X137045523Y-91208100D01*
X137004976Y-91132242D01*
X136956313Y-90971823D01*
X136939883Y-90805000D01*
X136956313Y-90638177D01*
X137004976Y-90477758D01*
X137083995Y-90329924D01*
X137083996Y-90329922D01*
X137190341Y-90200341D01*
X137319922Y-90093996D01*
X137400639Y-90050852D01*
X137467758Y-90014976D01*
X137628177Y-89966313D01*
X137753196Y-89954000D01*
X137836804Y-89954000D01*
X137961823Y-89966313D01*
X137961823Y-89966313D01*
G37*
G36*
X140501823Y-89966313D02*
G01*
X140662242Y-90014976D01*
X140729361Y-90050852D01*
X140810078Y-90093996D01*
X140939659Y-90200341D01*
X141046004Y-90329922D01*
X141046005Y-90329924D01*
X141125024Y-90477758D01*
X141173687Y-90638177D01*
X141190117Y-90805000D01*
X141173687Y-90971823D01*
X141125024Y-91132242D01*
X141084477Y-91208100D01*
X141046004Y-91280078D01*
X140939659Y-91409659D01*
X140810078Y-91516004D01*
X140810076Y-91516005D01*
X140662242Y-91595024D01*
X140501823Y-91643687D01*
X140376804Y-91656000D01*
X140293196Y-91656000D01*
X140168177Y-91643687D01*
X140007758Y-91595024D01*
X139859924Y-91516005D01*
X139859922Y-91516004D01*
X139730341Y-91409659D01*
X139623996Y-91280078D01*
X139585523Y-91208100D01*
X139544976Y-91132242D01*
X139496313Y-90971823D01*
X139479883Y-90805000D01*
X139496313Y-90638177D01*
X139544976Y-90477758D01*
X139623995Y-90329924D01*
X139623996Y-90329922D01*
X139730341Y-90200341D01*
X139859922Y-90093996D01*
X139940639Y-90050852D01*
X140007758Y-90014976D01*
X140168177Y-89966313D01*
X140293196Y-89954000D01*
X140376804Y-89954000D01*
X140501823Y-89966313D01*
X140501823Y-89966313D01*
G37*
G36*
X143041823Y-89966313D02*
G01*
X143202242Y-90014976D01*
X143269361Y-90050852D01*
X143350078Y-90093996D01*
X143479659Y-90200341D01*
X143586004Y-90329922D01*
X143586005Y-90329924D01*
X143665024Y-90477758D01*
X143713687Y-90638177D01*
X143730117Y-90805000D01*
X143713687Y-90971823D01*
X143665024Y-91132242D01*
X143624477Y-91208100D01*
X143586004Y-91280078D01*
X143479659Y-91409659D01*
X143350078Y-91516004D01*
X143350076Y-91516005D01*
X143202242Y-91595024D01*
X143041823Y-91643687D01*
X142916804Y-91656000D01*
X142833196Y-91656000D01*
X142708177Y-91643687D01*
X142547758Y-91595024D01*
X142399924Y-91516005D01*
X142399922Y-91516004D01*
X142270341Y-91409659D01*
X142163996Y-91280078D01*
X142125523Y-91208100D01*
X142084976Y-91132242D01*
X142036313Y-90971823D01*
X142019883Y-90805000D01*
X142036313Y-90638177D01*
X142084976Y-90477758D01*
X142163995Y-90329924D01*
X142163996Y-90329922D01*
X142270341Y-90200341D01*
X142399922Y-90093996D01*
X142480639Y-90050852D01*
X142547758Y-90014976D01*
X142708177Y-89966313D01*
X142833196Y-89954000D01*
X142916804Y-89954000D01*
X143041823Y-89966313D01*
X143041823Y-89966313D01*
G37*
G36*
X145581823Y-89966313D02*
G01*
X145742242Y-90014976D01*
X145809361Y-90050852D01*
X145890078Y-90093996D01*
X146019659Y-90200341D01*
X146126004Y-90329922D01*
X146126005Y-90329924D01*
X146205024Y-90477758D01*
X146253687Y-90638177D01*
X146270117Y-90805000D01*
X146253687Y-90971823D01*
X146205024Y-91132242D01*
X146164477Y-91208100D01*
X146126004Y-91280078D01*
X146019659Y-91409659D01*
X145890078Y-91516004D01*
X145890076Y-91516005D01*
X145742242Y-91595024D01*
X145581823Y-91643687D01*
X145456804Y-91656000D01*
X145373196Y-91656000D01*
X145248177Y-91643687D01*
X145087758Y-91595024D01*
X144939924Y-91516005D01*
X144939922Y-91516004D01*
X144810341Y-91409659D01*
X144703996Y-91280078D01*
X144665523Y-91208100D01*
X144624976Y-91132242D01*
X144576313Y-90971823D01*
X144559883Y-90805000D01*
X144576313Y-90638177D01*
X144624976Y-90477758D01*
X144703995Y-90329924D01*
X144703996Y-90329922D01*
X144810341Y-90200341D01*
X144939922Y-90093996D01*
X145020639Y-90050852D01*
X145087758Y-90014976D01*
X145248177Y-89966313D01*
X145373196Y-89954000D01*
X145456804Y-89954000D01*
X145581823Y-89966313D01*
X145581823Y-89966313D01*
G37*
G36*
X77636823Y-89331313D02*
G01*
X77797242Y-89379976D01*
X77929906Y-89450886D01*
X77945078Y-89458996D01*
X78074659Y-89565341D01*
X78181004Y-89694922D01*
X78181005Y-89694924D01*
X78260024Y-89842758D01*
X78308687Y-90003177D01*
X78325117Y-90170000D01*
X78308687Y-90336823D01*
X78260024Y-90497242D01*
X78193498Y-90621703D01*
X78181004Y-90645078D01*
X78074659Y-90774659D01*
X77945078Y-90881004D01*
X77945076Y-90881005D01*
X77797242Y-90960024D01*
X77636823Y-91008687D01*
X77511804Y-91021000D01*
X77428196Y-91021000D01*
X77303177Y-91008687D01*
X77142758Y-90960024D01*
X76994924Y-90881005D01*
X76994922Y-90881004D01*
X76865341Y-90774659D01*
X76758996Y-90645078D01*
X76746502Y-90621703D01*
X76679976Y-90497242D01*
X76631313Y-90336823D01*
X76614883Y-90170000D01*
X76631313Y-90003177D01*
X76679976Y-89842758D01*
X76758995Y-89694924D01*
X76758996Y-89694922D01*
X76865341Y-89565341D01*
X76994922Y-89458996D01*
X77010094Y-89450886D01*
X77142758Y-89379976D01*
X77303177Y-89331313D01*
X77428196Y-89319000D01*
X77511804Y-89319000D01*
X77636823Y-89331313D01*
X77636823Y-89331313D01*
G37*
G36*
X85256823Y-89331313D02*
G01*
X85417242Y-89379976D01*
X85549906Y-89450886D01*
X85565078Y-89458996D01*
X85694659Y-89565341D01*
X85801004Y-89694922D01*
X85801005Y-89694924D01*
X85880024Y-89842758D01*
X85928687Y-90003177D01*
X85945117Y-90170000D01*
X85928687Y-90336823D01*
X85880024Y-90497242D01*
X85813498Y-90621703D01*
X85801004Y-90645078D01*
X85694659Y-90774659D01*
X85565078Y-90881004D01*
X85565076Y-90881005D01*
X85417242Y-90960024D01*
X85256823Y-91008687D01*
X85131804Y-91021000D01*
X85048196Y-91021000D01*
X84923177Y-91008687D01*
X84762758Y-90960024D01*
X84614924Y-90881005D01*
X84614922Y-90881004D01*
X84485341Y-90774659D01*
X84378996Y-90645078D01*
X84366502Y-90621703D01*
X84299976Y-90497242D01*
X84251313Y-90336823D01*
X84234883Y-90170000D01*
X84251313Y-90003177D01*
X84299976Y-89842758D01*
X84378995Y-89694924D01*
X84378996Y-89694922D01*
X84485341Y-89565341D01*
X84614922Y-89458996D01*
X84630094Y-89450886D01*
X84762758Y-89379976D01*
X84923177Y-89331313D01*
X85048196Y-89319000D01*
X85131804Y-89319000D01*
X85256823Y-89331313D01*
X85256823Y-89331313D01*
G37*
G36*
X103049294Y-87998633D02*
G01*
X103221695Y-88050931D01*
X103380583Y-88135858D01*
X103519849Y-88250151D01*
X103634142Y-88389417D01*
X103719069Y-88548305D01*
X103771367Y-88720706D01*
X103789025Y-88900000D01*
X103771367Y-89079294D01*
X103719069Y-89251695D01*
X103634142Y-89410583D01*
X103519849Y-89549849D01*
X103380583Y-89664142D01*
X103221695Y-89749069D01*
X103049294Y-89801367D01*
X102914931Y-89814600D01*
X102825069Y-89814600D01*
X102690706Y-89801367D01*
X102518305Y-89749069D01*
X102359417Y-89664142D01*
X102220151Y-89549849D01*
X102105858Y-89410583D01*
X102020931Y-89251695D01*
X101968633Y-89079294D01*
X101950975Y-88900000D01*
X101968633Y-88720706D01*
X102020931Y-88548305D01*
X102105858Y-88389417D01*
X102220151Y-88250151D01*
X102359417Y-88135858D01*
X102518305Y-88050931D01*
X102690706Y-87998633D01*
X102825069Y-87985400D01*
X102914931Y-87985400D01*
X103049294Y-87998633D01*
X103049294Y-87998633D01*
G37*
G36*
X105589294Y-87998633D02*
G01*
X105761695Y-88050931D01*
X105920583Y-88135858D01*
X106059849Y-88250151D01*
X106174142Y-88389417D01*
X106259069Y-88548305D01*
X106311367Y-88720706D01*
X106329025Y-88900000D01*
X106311367Y-89079294D01*
X106259069Y-89251695D01*
X106174142Y-89410583D01*
X106059849Y-89549849D01*
X105920583Y-89664142D01*
X105761695Y-89749069D01*
X105589294Y-89801367D01*
X105454931Y-89814600D01*
X105365069Y-89814600D01*
X105230706Y-89801367D01*
X105058305Y-89749069D01*
X104899417Y-89664142D01*
X104760151Y-89549849D01*
X104645858Y-89410583D01*
X104560931Y-89251695D01*
X104508633Y-89079294D01*
X104490975Y-88900000D01*
X104508633Y-88720706D01*
X104560931Y-88548305D01*
X104645858Y-88389417D01*
X104760151Y-88250151D01*
X104899417Y-88135858D01*
X105058305Y-88050931D01*
X105230706Y-87998633D01*
X105365069Y-87985400D01*
X105454931Y-87985400D01*
X105589294Y-87998633D01*
X105589294Y-87998633D01*
G37*
G36*
X155119294Y-87363633D02*
G01*
X155291695Y-87415931D01*
X155450583Y-87500858D01*
X155589849Y-87615151D01*
X155704142Y-87754417D01*
X155789069Y-87913305D01*
X155841367Y-88085706D01*
X155859025Y-88265000D01*
X155841367Y-88444294D01*
X155789069Y-88616695D01*
X155704142Y-88775583D01*
X155589849Y-88914849D01*
X155450583Y-89029142D01*
X155291695Y-89114069D01*
X155119294Y-89166367D01*
X154984931Y-89179600D01*
X154895069Y-89179600D01*
X154760706Y-89166367D01*
X154588305Y-89114069D01*
X154429417Y-89029142D01*
X154290151Y-88914849D01*
X154175858Y-88775583D01*
X154090931Y-88616695D01*
X154038633Y-88444294D01*
X154020975Y-88265000D01*
X154038633Y-88085706D01*
X154090931Y-87913305D01*
X154175858Y-87754417D01*
X154290151Y-87615151D01*
X154429417Y-87500858D01*
X154588305Y-87415931D01*
X154760706Y-87363633D01*
X154895069Y-87350400D01*
X154984931Y-87350400D01*
X155119294Y-87363633D01*
X155119294Y-87363633D01*
G37*
G36*
X157659294Y-87363633D02*
G01*
X157831695Y-87415931D01*
X157990583Y-87500858D01*
X158129849Y-87615151D01*
X158244142Y-87754417D01*
X158329069Y-87913305D01*
X158381367Y-88085706D01*
X158399025Y-88265000D01*
X158381367Y-88444294D01*
X158329069Y-88616695D01*
X158244142Y-88775583D01*
X158129849Y-88914849D01*
X157990583Y-89029142D01*
X157831695Y-89114069D01*
X157659294Y-89166367D01*
X157524931Y-89179600D01*
X157435069Y-89179600D01*
X157300706Y-89166367D01*
X157128305Y-89114069D01*
X156969417Y-89029142D01*
X156830151Y-88914849D01*
X156715858Y-88775583D01*
X156630931Y-88616695D01*
X156578633Y-88444294D01*
X156560975Y-88265000D01*
X156578633Y-88085706D01*
X156630931Y-87913305D01*
X156715858Y-87754417D01*
X156830151Y-87615151D01*
X156969417Y-87500858D01*
X157128305Y-87415931D01*
X157300706Y-87363633D01*
X157435069Y-87350400D01*
X157524931Y-87350400D01*
X157659294Y-87363633D01*
X157659294Y-87363633D01*
G37*
G36*
X91053228Y-87446703D02*
G01*
X91208100Y-87510853D01*
X91347481Y-87603985D01*
X91466015Y-87722519D01*
X91559147Y-87861900D01*
X91623297Y-88016772D01*
X91656000Y-88181184D01*
X91656000Y-88348816D01*
X91623297Y-88513228D01*
X91559147Y-88668100D01*
X91466015Y-88807481D01*
X91347481Y-88926015D01*
X91208100Y-89019147D01*
X91053228Y-89083297D01*
X90888816Y-89116000D01*
X90721184Y-89116000D01*
X90556772Y-89083297D01*
X90401900Y-89019147D01*
X90262519Y-88926015D01*
X90143985Y-88807481D01*
X90050853Y-88668100D01*
X89986703Y-88513228D01*
X89954000Y-88348816D01*
X89954000Y-88181184D01*
X89986703Y-88016772D01*
X90050853Y-87861900D01*
X90143985Y-87722519D01*
X90262519Y-87603985D01*
X90401900Y-87510853D01*
X90556772Y-87446703D01*
X90721184Y-87414000D01*
X90888816Y-87414000D01*
X91053228Y-87446703D01*
X91053228Y-87446703D01*
G37*
G36*
X96133228Y-87446703D02*
G01*
X96288100Y-87510853D01*
X96427481Y-87603985D01*
X96546015Y-87722519D01*
X96639147Y-87861900D01*
X96703297Y-88016772D01*
X96736000Y-88181184D01*
X96736000Y-88348816D01*
X96703297Y-88513228D01*
X96639147Y-88668100D01*
X96546015Y-88807481D01*
X96427481Y-88926015D01*
X96288100Y-89019147D01*
X96133228Y-89083297D01*
X95968816Y-89116000D01*
X95801184Y-89116000D01*
X95636772Y-89083297D01*
X95481900Y-89019147D01*
X95342519Y-88926015D01*
X95223985Y-88807481D01*
X95130853Y-88668100D01*
X95066703Y-88513228D01*
X95034000Y-88348816D01*
X95034000Y-88181184D01*
X95066703Y-88016772D01*
X95130853Y-87861900D01*
X95223985Y-87722519D01*
X95342519Y-87603985D01*
X95481900Y-87510853D01*
X95636772Y-87446703D01*
X95801184Y-87414000D01*
X95968816Y-87414000D01*
X96133228Y-87446703D01*
X96133228Y-87446703D01*
G37*
G36*
X85256823Y-86791313D02*
G01*
X85417242Y-86839976D01*
X85549906Y-86910886D01*
X85565078Y-86918996D01*
X85694659Y-87025341D01*
X85801004Y-87154922D01*
X85801005Y-87154924D01*
X85880024Y-87302758D01*
X85928687Y-87463177D01*
X85945117Y-87630000D01*
X85928687Y-87796823D01*
X85880024Y-87957242D01*
X85811358Y-88085706D01*
X85801004Y-88105078D01*
X85694659Y-88234659D01*
X85565078Y-88341004D01*
X85565076Y-88341005D01*
X85417242Y-88420024D01*
X85256823Y-88468687D01*
X85131804Y-88481000D01*
X85048196Y-88481000D01*
X84923177Y-88468687D01*
X84762758Y-88420024D01*
X84614924Y-88341005D01*
X84614922Y-88341004D01*
X84485341Y-88234659D01*
X84378996Y-88105078D01*
X84368642Y-88085706D01*
X84299976Y-87957242D01*
X84251313Y-87796823D01*
X84234883Y-87630000D01*
X84251313Y-87463177D01*
X84299976Y-87302758D01*
X84378995Y-87154924D01*
X84378996Y-87154922D01*
X84485341Y-87025341D01*
X84614922Y-86918996D01*
X84630094Y-86910886D01*
X84762758Y-86839976D01*
X84923177Y-86791313D01*
X85048196Y-86779000D01*
X85131804Y-86779000D01*
X85256823Y-86791313D01*
X85256823Y-86791313D01*
G37*
G36*
X77636823Y-86791313D02*
G01*
X77797242Y-86839976D01*
X77929906Y-86910886D01*
X77945078Y-86918996D01*
X78074659Y-87025341D01*
X78181004Y-87154922D01*
X78181005Y-87154924D01*
X78260024Y-87302758D01*
X78308687Y-87463177D01*
X78325117Y-87630000D01*
X78308687Y-87796823D01*
X78260024Y-87957242D01*
X78191358Y-88085706D01*
X78181004Y-88105078D01*
X78074659Y-88234659D01*
X77945078Y-88341004D01*
X77945076Y-88341005D01*
X77797242Y-88420024D01*
X77636823Y-88468687D01*
X77511804Y-88481000D01*
X77428196Y-88481000D01*
X77303177Y-88468687D01*
X77142758Y-88420024D01*
X76994924Y-88341005D01*
X76994922Y-88341004D01*
X76865341Y-88234659D01*
X76758996Y-88105078D01*
X76748642Y-88085706D01*
X76679976Y-87957242D01*
X76631313Y-87796823D01*
X76614883Y-87630000D01*
X76631313Y-87463177D01*
X76679976Y-87302758D01*
X76758995Y-87154924D01*
X76758996Y-87154922D01*
X76865341Y-87025341D01*
X76994922Y-86918996D01*
X77010094Y-86910886D01*
X77142758Y-86839976D01*
X77303177Y-86791313D01*
X77428196Y-86779000D01*
X77511804Y-86779000D01*
X77636823Y-86791313D01*
X77636823Y-86791313D01*
G37*
G36*
X136773228Y-86176703D02*
G01*
X136928100Y-86240853D01*
X137067481Y-86333985D01*
X137186015Y-86452519D01*
X137279147Y-86591900D01*
X137343297Y-86746772D01*
X137376000Y-86911184D01*
X137376000Y-87078816D01*
X137343297Y-87243228D01*
X137279147Y-87398100D01*
X137186015Y-87537481D01*
X137067481Y-87656015D01*
X136928100Y-87749147D01*
X136773228Y-87813297D01*
X136608816Y-87846000D01*
X136441184Y-87846000D01*
X136276772Y-87813297D01*
X136121900Y-87749147D01*
X135982519Y-87656015D01*
X135863985Y-87537481D01*
X135770853Y-87398100D01*
X135706703Y-87243228D01*
X135674000Y-87078816D01*
X135674000Y-86911184D01*
X135706703Y-86746772D01*
X135770853Y-86591900D01*
X135863985Y-86452519D01*
X135982519Y-86333985D01*
X136121900Y-86240853D01*
X136276772Y-86176703D01*
X136441184Y-86144000D01*
X136608816Y-86144000D01*
X136773228Y-86176703D01*
X136773228Y-86176703D01*
G37*
G36*
X141773228Y-86176703D02*
G01*
X141928100Y-86240853D01*
X142067481Y-86333985D01*
X142186015Y-86452519D01*
X142279147Y-86591900D01*
X142343297Y-86746772D01*
X142376000Y-86911184D01*
X142376000Y-87078816D01*
X142343297Y-87243228D01*
X142279147Y-87398100D01*
X142186015Y-87537481D01*
X142067481Y-87656015D01*
X141928100Y-87749147D01*
X141773228Y-87813297D01*
X141608816Y-87846000D01*
X141441184Y-87846000D01*
X141276772Y-87813297D01*
X141121900Y-87749147D01*
X140982519Y-87656015D01*
X140863985Y-87537481D01*
X140770853Y-87398100D01*
X140706703Y-87243228D01*
X140674000Y-87078816D01*
X140674000Y-86911184D01*
X140706703Y-86746772D01*
X140770853Y-86591900D01*
X140863985Y-86452519D01*
X140982519Y-86333985D01*
X141121900Y-86240853D01*
X141276772Y-86176703D01*
X141441184Y-86144000D01*
X141608816Y-86144000D01*
X141773228Y-86176703D01*
X141773228Y-86176703D01*
G37*
G36*
X117600589Y-85598876D02*
G01*
X117699893Y-85618629D01*
X117840206Y-85676748D01*
X117966484Y-85761125D01*
X118073875Y-85868516D01*
X118158252Y-85994794D01*
X118216371Y-86135107D01*
X118216371Y-86135109D01*
X118246000Y-86284062D01*
X118246000Y-86435938D01*
X118236124Y-86485589D01*
X118216371Y-86584893D01*
X118158252Y-86725206D01*
X118073875Y-86851484D01*
X117966484Y-86958875D01*
X117840206Y-87043252D01*
X117699893Y-87101371D01*
X117600589Y-87121124D01*
X117550938Y-87131000D01*
X117399062Y-87131000D01*
X117349411Y-87121124D01*
X117250107Y-87101371D01*
X117109794Y-87043252D01*
X116983516Y-86958875D01*
X116876125Y-86851484D01*
X116791748Y-86725206D01*
X116733629Y-86584893D01*
X116713876Y-86485589D01*
X116704000Y-86435938D01*
X116704000Y-86284062D01*
X116733629Y-86135109D01*
X116733629Y-86135107D01*
X116791748Y-85994794D01*
X116876125Y-85868516D01*
X116983516Y-85761125D01*
X117109794Y-85676748D01*
X117250107Y-85618629D01*
X117349411Y-85598876D01*
X117399062Y-85589000D01*
X117550938Y-85589000D01*
X117600589Y-85598876D01*
X117600589Y-85598876D01*
G37*
G36*
X120140589Y-85598876D02*
G01*
X120239893Y-85618629D01*
X120380206Y-85676748D01*
X120506484Y-85761125D01*
X120613875Y-85868516D01*
X120698252Y-85994794D01*
X120756371Y-86135107D01*
X120756371Y-86135109D01*
X120786000Y-86284062D01*
X120786000Y-86435938D01*
X120776124Y-86485589D01*
X120756371Y-86584893D01*
X120698252Y-86725206D01*
X120613875Y-86851484D01*
X120506484Y-86958875D01*
X120380206Y-87043252D01*
X120239893Y-87101371D01*
X120140589Y-87121124D01*
X120090938Y-87131000D01*
X119939062Y-87131000D01*
X119889411Y-87121124D01*
X119790107Y-87101371D01*
X119649794Y-87043252D01*
X119523516Y-86958875D01*
X119416125Y-86851484D01*
X119331748Y-86725206D01*
X119273629Y-86584893D01*
X119253876Y-86485589D01*
X119244000Y-86435938D01*
X119244000Y-86284062D01*
X119273629Y-86135109D01*
X119273629Y-86135107D01*
X119331748Y-85994794D01*
X119416125Y-85868516D01*
X119523516Y-85761125D01*
X119649794Y-85676748D01*
X119790107Y-85618629D01*
X119889411Y-85598876D01*
X119939062Y-85589000D01*
X120090938Y-85589000D01*
X120140589Y-85598876D01*
X120140589Y-85598876D01*
G37*
G36*
X115060589Y-85598876D02*
G01*
X115159893Y-85618629D01*
X115300206Y-85676748D01*
X115426484Y-85761125D01*
X115533875Y-85868516D01*
X115618252Y-85994794D01*
X115676371Y-86135107D01*
X115676371Y-86135109D01*
X115706000Y-86284062D01*
X115706000Y-86435938D01*
X115696124Y-86485589D01*
X115676371Y-86584893D01*
X115618252Y-86725206D01*
X115533875Y-86851484D01*
X115426484Y-86958875D01*
X115300206Y-87043252D01*
X115159893Y-87101371D01*
X115060589Y-87121124D01*
X115010938Y-87131000D01*
X114859062Y-87131000D01*
X114809411Y-87121124D01*
X114710107Y-87101371D01*
X114569794Y-87043252D01*
X114443516Y-86958875D01*
X114336125Y-86851484D01*
X114251748Y-86725206D01*
X114193629Y-86584893D01*
X114173876Y-86485589D01*
X114164000Y-86435938D01*
X114164000Y-86284062D01*
X114193629Y-86135109D01*
X114193629Y-86135107D01*
X114251748Y-85994794D01*
X114336125Y-85868516D01*
X114443516Y-85761125D01*
X114569794Y-85676748D01*
X114710107Y-85618629D01*
X114809411Y-85598876D01*
X114859062Y-85589000D01*
X115010938Y-85589000D01*
X115060589Y-85598876D01*
X115060589Y-85598876D01*
G37*
G36*
X85256823Y-84251313D02*
G01*
X85417242Y-84299976D01*
X85549906Y-84370886D01*
X85565078Y-84378996D01*
X85694659Y-84485341D01*
X85801004Y-84614922D01*
X85801005Y-84614924D01*
X85880024Y-84762758D01*
X85928687Y-84923177D01*
X85945117Y-85090000D01*
X85928687Y-85256823D01*
X85880024Y-85417242D01*
X85809114Y-85549906D01*
X85801004Y-85565078D01*
X85694659Y-85694659D01*
X85565078Y-85801004D01*
X85565076Y-85801005D01*
X85417242Y-85880024D01*
X85256823Y-85928687D01*
X85131804Y-85941000D01*
X85048196Y-85941000D01*
X84923177Y-85928687D01*
X84762758Y-85880024D01*
X84614924Y-85801005D01*
X84614922Y-85801004D01*
X84485341Y-85694659D01*
X84378996Y-85565078D01*
X84370886Y-85549906D01*
X84299976Y-85417242D01*
X84251313Y-85256823D01*
X84234883Y-85090000D01*
X84251313Y-84923177D01*
X84299976Y-84762758D01*
X84378995Y-84614924D01*
X84378996Y-84614922D01*
X84485341Y-84485341D01*
X84614922Y-84378996D01*
X84630094Y-84370886D01*
X84762758Y-84299976D01*
X84923177Y-84251313D01*
X85048196Y-84239000D01*
X85131804Y-84239000D01*
X85256823Y-84251313D01*
X85256823Y-84251313D01*
G37*
G36*
X77636823Y-84251313D02*
G01*
X77797242Y-84299976D01*
X77929906Y-84370886D01*
X77945078Y-84378996D01*
X78074659Y-84485341D01*
X78181004Y-84614922D01*
X78181005Y-84614924D01*
X78260024Y-84762758D01*
X78308687Y-84923177D01*
X78325117Y-85090000D01*
X78308687Y-85256823D01*
X78260024Y-85417242D01*
X78189114Y-85549906D01*
X78181004Y-85565078D01*
X78074659Y-85694659D01*
X77945078Y-85801004D01*
X77945076Y-85801005D01*
X77797242Y-85880024D01*
X77636823Y-85928687D01*
X77511804Y-85941000D01*
X77428196Y-85941000D01*
X77303177Y-85928687D01*
X77142758Y-85880024D01*
X76994924Y-85801005D01*
X76994922Y-85801004D01*
X76865341Y-85694659D01*
X76758996Y-85565078D01*
X76750886Y-85549906D01*
X76679976Y-85417242D01*
X76631313Y-85256823D01*
X76614883Y-85090000D01*
X76631313Y-84923177D01*
X76679976Y-84762758D01*
X76758995Y-84614924D01*
X76758996Y-84614922D01*
X76865341Y-84485341D01*
X76994922Y-84378996D01*
X77010094Y-84370886D01*
X77142758Y-84299976D01*
X77303177Y-84251313D01*
X77428196Y-84239000D01*
X77511804Y-84239000D01*
X77636823Y-84251313D01*
X77636823Y-84251313D01*
G37*
G36*
X127801823Y-82346313D02*
G01*
X127962242Y-82394976D01*
X128094906Y-82465886D01*
X128110078Y-82473996D01*
X128239659Y-82580341D01*
X128346004Y-82709922D01*
X128346005Y-82709924D01*
X128425024Y-82857758D01*
X128473687Y-83018177D01*
X128490117Y-83185000D01*
X128473687Y-83351823D01*
X128425024Y-83512242D01*
X128354114Y-83644906D01*
X128346004Y-83660078D01*
X128239659Y-83789659D01*
X128110078Y-83896004D01*
X128110076Y-83896005D01*
X127962242Y-83975024D01*
X127801823Y-84023687D01*
X127676804Y-84036000D01*
X127593196Y-84036000D01*
X127468177Y-84023687D01*
X127307758Y-83975024D01*
X127159924Y-83896005D01*
X127159922Y-83896004D01*
X127030341Y-83789659D01*
X126923996Y-83660078D01*
X126915886Y-83644906D01*
X126844976Y-83512242D01*
X126796313Y-83351823D01*
X126779883Y-83185000D01*
X126796313Y-83018177D01*
X126844976Y-82857758D01*
X126923995Y-82709924D01*
X126923996Y-82709922D01*
X127030341Y-82580341D01*
X127159922Y-82473996D01*
X127175094Y-82465886D01*
X127307758Y-82394976D01*
X127468177Y-82346313D01*
X127593196Y-82334000D01*
X127676804Y-82334000D01*
X127801823Y-82346313D01*
X127801823Y-82346313D01*
G37*
G36*
X132963228Y-81731703D02*
G01*
X133118100Y-81795853D01*
X133257481Y-81888985D01*
X133376015Y-82007519D01*
X133469147Y-82146900D01*
X133533297Y-82301772D01*
X133566000Y-82466184D01*
X133566000Y-82633816D01*
X133533297Y-82798228D01*
X133469147Y-82953100D01*
X133376015Y-83092481D01*
X133257481Y-83211015D01*
X133118100Y-83304147D01*
X132963228Y-83368297D01*
X132798816Y-83401000D01*
X132631184Y-83401000D01*
X132466772Y-83368297D01*
X132311900Y-83304147D01*
X132172519Y-83211015D01*
X132053985Y-83092481D01*
X131960853Y-82953100D01*
X131896703Y-82798228D01*
X131864000Y-82633816D01*
X131864000Y-82466184D01*
X131896703Y-82301772D01*
X131960853Y-82146900D01*
X132053985Y-82007519D01*
X132172519Y-81888985D01*
X132311900Y-81795853D01*
X132466772Y-81731703D01*
X132631184Y-81699000D01*
X132798816Y-81699000D01*
X132963228Y-81731703D01*
X132963228Y-81731703D01*
G37*
G36*
X77636823Y-81711313D02*
G01*
X77797242Y-81759976D01*
X77929906Y-81830886D01*
X77945078Y-81838996D01*
X78074659Y-81945341D01*
X78181004Y-82074922D01*
X78181005Y-82074924D01*
X78260024Y-82222758D01*
X78308687Y-82383177D01*
X78325117Y-82550000D01*
X78308687Y-82716823D01*
X78260024Y-82877242D01*
X78219477Y-82953100D01*
X78181004Y-83025078D01*
X78074659Y-83154659D01*
X77945078Y-83261004D01*
X77945076Y-83261005D01*
X77797242Y-83340024D01*
X77636823Y-83388687D01*
X77511804Y-83401000D01*
X77428196Y-83401000D01*
X77303177Y-83388687D01*
X77142758Y-83340024D01*
X76994924Y-83261005D01*
X76994922Y-83261004D01*
X76865341Y-83154659D01*
X76758996Y-83025078D01*
X76720523Y-82953100D01*
X76679976Y-82877242D01*
X76631313Y-82716823D01*
X76614883Y-82550000D01*
X76631313Y-82383177D01*
X76679976Y-82222758D01*
X76758995Y-82074924D01*
X76758996Y-82074922D01*
X76865341Y-81945341D01*
X76994922Y-81838996D01*
X77010094Y-81830886D01*
X77142758Y-81759976D01*
X77303177Y-81711313D01*
X77428196Y-81699000D01*
X77511804Y-81699000D01*
X77636823Y-81711313D01*
X77636823Y-81711313D01*
G37*
G36*
X85256823Y-81711313D02*
G01*
X85417242Y-81759976D01*
X85549906Y-81830886D01*
X85565078Y-81838996D01*
X85694659Y-81945341D01*
X85801004Y-82074922D01*
X85801005Y-82074924D01*
X85880024Y-82222758D01*
X85928687Y-82383177D01*
X85945117Y-82550000D01*
X85928687Y-82716823D01*
X85880024Y-82877242D01*
X85839477Y-82953100D01*
X85801004Y-83025078D01*
X85694659Y-83154659D01*
X85565078Y-83261004D01*
X85565076Y-83261005D01*
X85417242Y-83340024D01*
X85256823Y-83388687D01*
X85131804Y-83401000D01*
X85048196Y-83401000D01*
X84923177Y-83388687D01*
X84762758Y-83340024D01*
X84614924Y-83261005D01*
X84614922Y-83261004D01*
X84485341Y-83154659D01*
X84378996Y-83025078D01*
X84340523Y-82953100D01*
X84299976Y-82877242D01*
X84251313Y-82716823D01*
X84234883Y-82550000D01*
X84251313Y-82383177D01*
X84299976Y-82222758D01*
X84378995Y-82074924D01*
X84378996Y-82074922D01*
X84485341Y-81945341D01*
X84614922Y-81838996D01*
X84630094Y-81830886D01*
X84762758Y-81759976D01*
X84923177Y-81711313D01*
X85048196Y-81699000D01*
X85131804Y-81699000D01*
X85256823Y-81711313D01*
X85256823Y-81711313D01*
G37*
G36*
X137961823Y-81076313D02*
G01*
X138122242Y-81124976D01*
X138254906Y-81195886D01*
X138270078Y-81203996D01*
X138399659Y-81310341D01*
X138506004Y-81439922D01*
X138506005Y-81439924D01*
X138585024Y-81587758D01*
X138633687Y-81748177D01*
X138650117Y-81915000D01*
X138633687Y-82081823D01*
X138585024Y-82242242D01*
X138535978Y-82334000D01*
X138506004Y-82390078D01*
X138399659Y-82519659D01*
X138270078Y-82626004D01*
X138270076Y-82626005D01*
X138122242Y-82705024D01*
X137961823Y-82753687D01*
X137836804Y-82766000D01*
X137753196Y-82766000D01*
X137628177Y-82753687D01*
X137467758Y-82705024D01*
X137319924Y-82626005D01*
X137319922Y-82626004D01*
X137190341Y-82519659D01*
X137083996Y-82390078D01*
X137054022Y-82334000D01*
X137004976Y-82242242D01*
X136956313Y-82081823D01*
X136939883Y-81915000D01*
X136956313Y-81748177D01*
X137004976Y-81587758D01*
X137083995Y-81439924D01*
X137083996Y-81439922D01*
X137190341Y-81310341D01*
X137319922Y-81203996D01*
X137335094Y-81195886D01*
X137467758Y-81124976D01*
X137628177Y-81076313D01*
X137753196Y-81064000D01*
X137836804Y-81064000D01*
X137961823Y-81076313D01*
X137961823Y-81076313D01*
G37*
G36*
X145581823Y-81076313D02*
G01*
X145742242Y-81124976D01*
X145874906Y-81195886D01*
X145890078Y-81203996D01*
X146019659Y-81310341D01*
X146126004Y-81439922D01*
X146126005Y-81439924D01*
X146205024Y-81587758D01*
X146253687Y-81748177D01*
X146270117Y-81915000D01*
X146253687Y-82081823D01*
X146205024Y-82242242D01*
X146155978Y-82334000D01*
X146126004Y-82390078D01*
X146019659Y-82519659D01*
X145890078Y-82626004D01*
X145890076Y-82626005D01*
X145742242Y-82705024D01*
X145581823Y-82753687D01*
X145456804Y-82766000D01*
X145373196Y-82766000D01*
X145248177Y-82753687D01*
X145087758Y-82705024D01*
X144939924Y-82626005D01*
X144939922Y-82626004D01*
X144810341Y-82519659D01*
X144703996Y-82390078D01*
X144674022Y-82334000D01*
X144624976Y-82242242D01*
X144576313Y-82081823D01*
X144559883Y-81915000D01*
X144576313Y-81748177D01*
X144624976Y-81587758D01*
X144703995Y-81439924D01*
X144703996Y-81439922D01*
X144810341Y-81310341D01*
X144939922Y-81203996D01*
X144955094Y-81195886D01*
X145087758Y-81124976D01*
X145248177Y-81076313D01*
X145373196Y-81064000D01*
X145456804Y-81064000D01*
X145581823Y-81076313D01*
X145581823Y-81076313D01*
G37*
G36*
X91053228Y-80461703D02*
G01*
X91208100Y-80525853D01*
X91347481Y-80618985D01*
X91466015Y-80737519D01*
X91559147Y-80876900D01*
X91623297Y-81031772D01*
X91656000Y-81196184D01*
X91656000Y-81363816D01*
X91623297Y-81528228D01*
X91559147Y-81683100D01*
X91466015Y-81822481D01*
X91347481Y-81941015D01*
X91208100Y-82034147D01*
X91053228Y-82098297D01*
X90888816Y-82131000D01*
X90721184Y-82131000D01*
X90556772Y-82098297D01*
X90401900Y-82034147D01*
X90262519Y-81941015D01*
X90143985Y-81822481D01*
X90050853Y-81683100D01*
X89986703Y-81528228D01*
X89954000Y-81363816D01*
X89954000Y-81196184D01*
X89986703Y-81031772D01*
X90050853Y-80876900D01*
X90143985Y-80737519D01*
X90262519Y-80618985D01*
X90401900Y-80525853D01*
X90556772Y-80461703D01*
X90721184Y-80429000D01*
X90888816Y-80429000D01*
X91053228Y-80461703D01*
X91053228Y-80461703D01*
G37*
G36*
X165901823Y-80441313D02*
G01*
X166062242Y-80489976D01*
X166194906Y-80560886D01*
X166210078Y-80568996D01*
X166339659Y-80675341D01*
X166446004Y-80804922D01*
X166446005Y-80804924D01*
X166525024Y-80952758D01*
X166573687Y-81113177D01*
X166590117Y-81280000D01*
X166573687Y-81446823D01*
X166525024Y-81607242D01*
X166484477Y-81683100D01*
X166446004Y-81755078D01*
X166339659Y-81884659D01*
X166210078Y-81991004D01*
X166210076Y-81991005D01*
X166062242Y-82070024D01*
X165901823Y-82118687D01*
X165776804Y-82131000D01*
X165693196Y-82131000D01*
X165568177Y-82118687D01*
X165407758Y-82070024D01*
X165259924Y-81991005D01*
X165259922Y-81991004D01*
X165130341Y-81884659D01*
X165023996Y-81755078D01*
X164985523Y-81683100D01*
X164944976Y-81607242D01*
X164896313Y-81446823D01*
X164879883Y-81280000D01*
X164896313Y-81113177D01*
X164944976Y-80952758D01*
X165023995Y-80804924D01*
X165023996Y-80804922D01*
X165130341Y-80675341D01*
X165259922Y-80568996D01*
X165275094Y-80560886D01*
X165407758Y-80489976D01*
X165568177Y-80441313D01*
X165693196Y-80429000D01*
X165776804Y-80429000D01*
X165901823Y-80441313D01*
X165901823Y-80441313D01*
G37*
G36*
X67489294Y-79743633D02*
G01*
X67661695Y-79795931D01*
X67820583Y-79880858D01*
X67959849Y-79995151D01*
X68074142Y-80134417D01*
X68159069Y-80293305D01*
X68211367Y-80465706D01*
X68229025Y-80645000D01*
X68211367Y-80824294D01*
X68159069Y-80996695D01*
X68074142Y-81155583D01*
X67959849Y-81294849D01*
X67820583Y-81409142D01*
X67661695Y-81494069D01*
X67489294Y-81546367D01*
X67354931Y-81559600D01*
X67265069Y-81559600D01*
X67130706Y-81546367D01*
X66958305Y-81494069D01*
X66799417Y-81409142D01*
X66660151Y-81294849D01*
X66545858Y-81155583D01*
X66460931Y-80996695D01*
X66408633Y-80824294D01*
X66390975Y-80645000D01*
X66408633Y-80465706D01*
X66460931Y-80293305D01*
X66545858Y-80134417D01*
X66660151Y-79995151D01*
X66799417Y-79880858D01*
X66958305Y-79795931D01*
X67130706Y-79743633D01*
X67265069Y-79730400D01*
X67354931Y-79730400D01*
X67489294Y-79743633D01*
X67489294Y-79743633D01*
G37*
G36*
X64949294Y-79743633D02*
G01*
X65121695Y-79795931D01*
X65280583Y-79880858D01*
X65419849Y-79995151D01*
X65534142Y-80134417D01*
X65619069Y-80293305D01*
X65671367Y-80465706D01*
X65689025Y-80645000D01*
X65671367Y-80824294D01*
X65619069Y-80996695D01*
X65534142Y-81155583D01*
X65419849Y-81294849D01*
X65280583Y-81409142D01*
X65121695Y-81494069D01*
X64949294Y-81546367D01*
X64814931Y-81559600D01*
X64725069Y-81559600D01*
X64590706Y-81546367D01*
X64418305Y-81494069D01*
X64259417Y-81409142D01*
X64120151Y-81294849D01*
X64005858Y-81155583D01*
X63920931Y-80996695D01*
X63868633Y-80824294D01*
X63850975Y-80645000D01*
X63868633Y-80465706D01*
X63920931Y-80293305D01*
X64005858Y-80134417D01*
X64120151Y-79995151D01*
X64259417Y-79880858D01*
X64418305Y-79795931D01*
X64590706Y-79743633D01*
X64725069Y-79730400D01*
X64814931Y-79730400D01*
X64949294Y-79743633D01*
X64949294Y-79743633D01*
G37*
G36*
X160821823Y-79171313D02*
G01*
X160982242Y-79219976D01*
X161049361Y-79255852D01*
X161130078Y-79298996D01*
X161259659Y-79405341D01*
X161366004Y-79534922D01*
X161366005Y-79534924D01*
X161445024Y-79682758D01*
X161493687Y-79843177D01*
X161510117Y-80010000D01*
X161493687Y-80176823D01*
X161445024Y-80337242D01*
X161404477Y-80413100D01*
X161366004Y-80485078D01*
X161259659Y-80614659D01*
X161130078Y-80721004D01*
X161130076Y-80721005D01*
X160982242Y-80800024D01*
X160821823Y-80848687D01*
X160696804Y-80861000D01*
X160613196Y-80861000D01*
X160488177Y-80848687D01*
X160327758Y-80800024D01*
X160179924Y-80721005D01*
X160179922Y-80721004D01*
X160050341Y-80614659D01*
X159943996Y-80485078D01*
X159905523Y-80413100D01*
X159864976Y-80337242D01*
X159816313Y-80176823D01*
X159799883Y-80010000D01*
X159816313Y-79843177D01*
X159864976Y-79682758D01*
X159943995Y-79534924D01*
X159943996Y-79534922D01*
X160050341Y-79405341D01*
X160179922Y-79298996D01*
X160260639Y-79255852D01*
X160327758Y-79219976D01*
X160488177Y-79171313D01*
X160613196Y-79159000D01*
X160696804Y-79159000D01*
X160821823Y-79171313D01*
X160821823Y-79171313D01*
G37*
G36*
X85256823Y-79171313D02*
G01*
X85417242Y-79219976D01*
X85484361Y-79255852D01*
X85565078Y-79298996D01*
X85694659Y-79405341D01*
X85801004Y-79534922D01*
X85801005Y-79534924D01*
X85880024Y-79682758D01*
X85928687Y-79843177D01*
X85945117Y-80010000D01*
X85928687Y-80176823D01*
X85880024Y-80337242D01*
X85839477Y-80413100D01*
X85801004Y-80485078D01*
X85694659Y-80614659D01*
X85565078Y-80721004D01*
X85565076Y-80721005D01*
X85417242Y-80800024D01*
X85256823Y-80848687D01*
X85131804Y-80861000D01*
X85048196Y-80861000D01*
X84923177Y-80848687D01*
X84762758Y-80800024D01*
X84614924Y-80721005D01*
X84614922Y-80721004D01*
X84485341Y-80614659D01*
X84378996Y-80485078D01*
X84340523Y-80413100D01*
X84299976Y-80337242D01*
X84251313Y-80176823D01*
X84234883Y-80010000D01*
X84251313Y-79843177D01*
X84299976Y-79682758D01*
X84378995Y-79534924D01*
X84378996Y-79534922D01*
X84485341Y-79405341D01*
X84614922Y-79298996D01*
X84695639Y-79255852D01*
X84762758Y-79219976D01*
X84923177Y-79171313D01*
X85048196Y-79159000D01*
X85131804Y-79159000D01*
X85256823Y-79171313D01*
X85256823Y-79171313D01*
G37*
G36*
X150743228Y-79191703D02*
G01*
X150898100Y-79255853D01*
X151037481Y-79348985D01*
X151156015Y-79467519D01*
X151249147Y-79606900D01*
X151313297Y-79761772D01*
X151346000Y-79926184D01*
X151346000Y-80093816D01*
X151313297Y-80258228D01*
X151249147Y-80413100D01*
X151156015Y-80552481D01*
X151037481Y-80671015D01*
X150898100Y-80764147D01*
X150743228Y-80828297D01*
X150578816Y-80861000D01*
X150411184Y-80861000D01*
X150246772Y-80828297D01*
X150091900Y-80764147D01*
X149952519Y-80671015D01*
X149833985Y-80552481D01*
X149740853Y-80413100D01*
X149676703Y-80258228D01*
X149644000Y-80093816D01*
X149644000Y-79926184D01*
X149676703Y-79761772D01*
X149740853Y-79606900D01*
X149833985Y-79467519D01*
X149952519Y-79348985D01*
X150091900Y-79255853D01*
X150246772Y-79191703D01*
X150411184Y-79159000D01*
X150578816Y-79159000D01*
X150743228Y-79191703D01*
X150743228Y-79191703D01*
G37*
G36*
X78321000Y-80861000D02*
G01*
X76619000Y-80861000D01*
X76619000Y-79159000D01*
X78321000Y-79159000D01*
X78321000Y-80861000D01*
X78321000Y-80861000D01*
G37*
G36*
X145581823Y-78536313D02*
G01*
X145742242Y-78584976D01*
X145874906Y-78655886D01*
X145890078Y-78663996D01*
X146019659Y-78770341D01*
X146126004Y-78899922D01*
X146126005Y-78899924D01*
X146205024Y-79047758D01*
X146253687Y-79208177D01*
X146270117Y-79375000D01*
X146253687Y-79541823D01*
X146205024Y-79702242D01*
X146134114Y-79834906D01*
X146126004Y-79850078D01*
X146019659Y-79979659D01*
X145890078Y-80086004D01*
X145890076Y-80086005D01*
X145742242Y-80165024D01*
X145581823Y-80213687D01*
X145456804Y-80226000D01*
X145373196Y-80226000D01*
X145248177Y-80213687D01*
X145087758Y-80165024D01*
X144939924Y-80086005D01*
X144939922Y-80086004D01*
X144810341Y-79979659D01*
X144703996Y-79850078D01*
X144695886Y-79834906D01*
X144624976Y-79702242D01*
X144576313Y-79541823D01*
X144559883Y-79375000D01*
X144576313Y-79208177D01*
X144624976Y-79047758D01*
X144703995Y-78899924D01*
X144703996Y-78899922D01*
X144810341Y-78770341D01*
X144939922Y-78663996D01*
X144955094Y-78655886D01*
X145087758Y-78584976D01*
X145248177Y-78536313D01*
X145373196Y-78524000D01*
X145456804Y-78524000D01*
X145581823Y-78536313D01*
X145581823Y-78536313D01*
G37*
G36*
X137961823Y-78536313D02*
G01*
X138122242Y-78584976D01*
X138254906Y-78655886D01*
X138270078Y-78663996D01*
X138399659Y-78770341D01*
X138506004Y-78899922D01*
X138506005Y-78899924D01*
X138585024Y-79047758D01*
X138633687Y-79208177D01*
X138650117Y-79375000D01*
X138633687Y-79541823D01*
X138585024Y-79702242D01*
X138514114Y-79834906D01*
X138506004Y-79850078D01*
X138399659Y-79979659D01*
X138270078Y-80086004D01*
X138270076Y-80086005D01*
X138122242Y-80165024D01*
X137961823Y-80213687D01*
X137836804Y-80226000D01*
X137753196Y-80226000D01*
X137628177Y-80213687D01*
X137467758Y-80165024D01*
X137319924Y-80086005D01*
X137319922Y-80086004D01*
X137190341Y-79979659D01*
X137083996Y-79850078D01*
X137075886Y-79834906D01*
X137004976Y-79702242D01*
X136956313Y-79541823D01*
X136939883Y-79375000D01*
X136956313Y-79208177D01*
X137004976Y-79047758D01*
X137083995Y-78899924D01*
X137083996Y-78899922D01*
X137190341Y-78770341D01*
X137319922Y-78663996D01*
X137335094Y-78655886D01*
X137467758Y-78584976D01*
X137628177Y-78536313D01*
X137753196Y-78524000D01*
X137836804Y-78524000D01*
X137961823Y-78536313D01*
X137961823Y-78536313D01*
G37*
G36*
X67489294Y-77203633D02*
G01*
X67661695Y-77255931D01*
X67820583Y-77340858D01*
X67959849Y-77455151D01*
X68074142Y-77594417D01*
X68159069Y-77753305D01*
X68211367Y-77925706D01*
X68229025Y-78105000D01*
X68211367Y-78284294D01*
X68159069Y-78456695D01*
X68074142Y-78615583D01*
X67959849Y-78754849D01*
X67820583Y-78869142D01*
X67661695Y-78954069D01*
X67489294Y-79006367D01*
X67354931Y-79019600D01*
X67265069Y-79019600D01*
X67130706Y-79006367D01*
X66958305Y-78954069D01*
X66799417Y-78869142D01*
X66660151Y-78754849D01*
X66545858Y-78615583D01*
X66460931Y-78456695D01*
X66408633Y-78284294D01*
X66390975Y-78105000D01*
X66408633Y-77925706D01*
X66460931Y-77753305D01*
X66545858Y-77594417D01*
X66660151Y-77455151D01*
X66799417Y-77340858D01*
X66958305Y-77255931D01*
X67130706Y-77203633D01*
X67265069Y-77190400D01*
X67354931Y-77190400D01*
X67489294Y-77203633D01*
X67489294Y-77203633D01*
G37*
G36*
X64949294Y-77203633D02*
G01*
X65121695Y-77255931D01*
X65280583Y-77340858D01*
X65419849Y-77455151D01*
X65534142Y-77594417D01*
X65619069Y-77753305D01*
X65671367Y-77925706D01*
X65689025Y-78105000D01*
X65671367Y-78284294D01*
X65619069Y-78456695D01*
X65534142Y-78615583D01*
X65419849Y-78754849D01*
X65280583Y-78869142D01*
X65121695Y-78954069D01*
X64949294Y-79006367D01*
X64814931Y-79019600D01*
X64725069Y-79019600D01*
X64590706Y-79006367D01*
X64418305Y-78954069D01*
X64259417Y-78869142D01*
X64120151Y-78754849D01*
X64005858Y-78615583D01*
X63920931Y-78456695D01*
X63868633Y-78284294D01*
X63850975Y-78105000D01*
X63868633Y-77925706D01*
X63920931Y-77753305D01*
X64005858Y-77594417D01*
X64120151Y-77455151D01*
X64259417Y-77340858D01*
X64418305Y-77255931D01*
X64590706Y-77203633D01*
X64725069Y-77190400D01*
X64814931Y-77190400D01*
X64949294Y-77203633D01*
X64949294Y-77203633D01*
G37*
G36*
X108198228Y-77286703D02*
G01*
X108353100Y-77350853D01*
X108492481Y-77443985D01*
X108611015Y-77562519D01*
X108704147Y-77701900D01*
X108768297Y-77856772D01*
X108801000Y-78021184D01*
X108801000Y-78188816D01*
X108768297Y-78353228D01*
X108704147Y-78508100D01*
X108611015Y-78647481D01*
X108492481Y-78766015D01*
X108353100Y-78859147D01*
X108198228Y-78923297D01*
X108033816Y-78956000D01*
X107866184Y-78956000D01*
X107701772Y-78923297D01*
X107546900Y-78859147D01*
X107407519Y-78766015D01*
X107288985Y-78647481D01*
X107195853Y-78508100D01*
X107131703Y-78353228D01*
X107099000Y-78188816D01*
X107099000Y-78021184D01*
X107131703Y-77856772D01*
X107195853Y-77701900D01*
X107288985Y-77562519D01*
X107407519Y-77443985D01*
X107546900Y-77350853D01*
X107701772Y-77286703D01*
X107866184Y-77254000D01*
X108033816Y-77254000D01*
X108198228Y-77286703D01*
X108198228Y-77286703D01*
G37*
G36*
X97956823Y-77266313D02*
G01*
X98117242Y-77314976D01*
X98184361Y-77350852D01*
X98265078Y-77393996D01*
X98394659Y-77500341D01*
X98501004Y-77629922D01*
X98501005Y-77629924D01*
X98580024Y-77777758D01*
X98628687Y-77938177D01*
X98645117Y-78105000D01*
X98628687Y-78271823D01*
X98580024Y-78432242D01*
X98539477Y-78508100D01*
X98501004Y-78580078D01*
X98394659Y-78709659D01*
X98265078Y-78816004D01*
X98265076Y-78816005D01*
X98117242Y-78895024D01*
X97956823Y-78943687D01*
X97831804Y-78956000D01*
X97748196Y-78956000D01*
X97623177Y-78943687D01*
X97462758Y-78895024D01*
X97314924Y-78816005D01*
X97314922Y-78816004D01*
X97185341Y-78709659D01*
X97078996Y-78580078D01*
X97040523Y-78508100D01*
X96999976Y-78432242D01*
X96951313Y-78271823D01*
X96934883Y-78105000D01*
X96951313Y-77938177D01*
X96999976Y-77777758D01*
X97078995Y-77629924D01*
X97078996Y-77629922D01*
X97185341Y-77500341D01*
X97314922Y-77393996D01*
X97395639Y-77350852D01*
X97462758Y-77314976D01*
X97623177Y-77266313D01*
X97748196Y-77254000D01*
X97831804Y-77254000D01*
X97956823Y-77266313D01*
X97956823Y-77266313D01*
G37*
G36*
X132963228Y-76731703D02*
G01*
X133118100Y-76795853D01*
X133257481Y-76888985D01*
X133376015Y-77007519D01*
X133469147Y-77146900D01*
X133533297Y-77301772D01*
X133566000Y-77466184D01*
X133566000Y-77633816D01*
X133533297Y-77798228D01*
X133469147Y-77953100D01*
X133376015Y-78092481D01*
X133257481Y-78211015D01*
X133118100Y-78304147D01*
X132963228Y-78368297D01*
X132798816Y-78401000D01*
X132631184Y-78401000D01*
X132466772Y-78368297D01*
X132311900Y-78304147D01*
X132172519Y-78211015D01*
X132053985Y-78092481D01*
X131960853Y-77953100D01*
X131896703Y-77798228D01*
X131864000Y-77633816D01*
X131864000Y-77466184D01*
X131896703Y-77301772D01*
X131960853Y-77146900D01*
X132053985Y-77007519D01*
X132172519Y-76888985D01*
X132311900Y-76795853D01*
X132466772Y-76731703D01*
X132631184Y-76699000D01*
X132798816Y-76699000D01*
X132963228Y-76731703D01*
X132963228Y-76731703D01*
G37*
G36*
X115060589Y-76708876D02*
G01*
X115159893Y-76728629D01*
X115300206Y-76786748D01*
X115426484Y-76871125D01*
X115533875Y-76978516D01*
X115618252Y-77104794D01*
X115676371Y-77245107D01*
X115690269Y-77314976D01*
X115706000Y-77394062D01*
X115706000Y-77545938D01*
X115696357Y-77594417D01*
X115676371Y-77694893D01*
X115618252Y-77835206D01*
X115533875Y-77961484D01*
X115426484Y-78068875D01*
X115300206Y-78153252D01*
X115159893Y-78211371D01*
X115060589Y-78231124D01*
X115010938Y-78241000D01*
X114859062Y-78241000D01*
X114809411Y-78231124D01*
X114710107Y-78211371D01*
X114569794Y-78153252D01*
X114443516Y-78068875D01*
X114336125Y-77961484D01*
X114251748Y-77835206D01*
X114193629Y-77694893D01*
X114173643Y-77594417D01*
X114164000Y-77545938D01*
X114164000Y-77394062D01*
X114179731Y-77314976D01*
X114193629Y-77245107D01*
X114251748Y-77104794D01*
X114336125Y-76978516D01*
X114443516Y-76871125D01*
X114569794Y-76786748D01*
X114710107Y-76728629D01*
X114809411Y-76708876D01*
X114859062Y-76699000D01*
X115010938Y-76699000D01*
X115060589Y-76708876D01*
X115060589Y-76708876D01*
G37*
G36*
X120140589Y-76708876D02*
G01*
X120239893Y-76728629D01*
X120380206Y-76786748D01*
X120506484Y-76871125D01*
X120613875Y-76978516D01*
X120698252Y-77104794D01*
X120756371Y-77245107D01*
X120770269Y-77314976D01*
X120786000Y-77394062D01*
X120786000Y-77545938D01*
X120776357Y-77594417D01*
X120756371Y-77694893D01*
X120698252Y-77835206D01*
X120613875Y-77961484D01*
X120506484Y-78068875D01*
X120380206Y-78153252D01*
X120239893Y-78211371D01*
X120140589Y-78231124D01*
X120090938Y-78241000D01*
X119939062Y-78241000D01*
X119889411Y-78231124D01*
X119790107Y-78211371D01*
X119649794Y-78153252D01*
X119523516Y-78068875D01*
X119416125Y-77961484D01*
X119331748Y-77835206D01*
X119273629Y-77694893D01*
X119253643Y-77594417D01*
X119244000Y-77545938D01*
X119244000Y-77394062D01*
X119259731Y-77314976D01*
X119273629Y-77245107D01*
X119331748Y-77104794D01*
X119416125Y-76978516D01*
X119523516Y-76871125D01*
X119649794Y-76786748D01*
X119790107Y-76728629D01*
X119889411Y-76708876D01*
X119939062Y-76699000D01*
X120090938Y-76699000D01*
X120140589Y-76708876D01*
X120140589Y-76708876D01*
G37*
G36*
X117600589Y-76708876D02*
G01*
X117699893Y-76728629D01*
X117840206Y-76786748D01*
X117966484Y-76871125D01*
X118073875Y-76978516D01*
X118158252Y-77104794D01*
X118216371Y-77245107D01*
X118230269Y-77314976D01*
X118246000Y-77394062D01*
X118246000Y-77545938D01*
X118236357Y-77594417D01*
X118216371Y-77694893D01*
X118158252Y-77835206D01*
X118073875Y-77961484D01*
X117966484Y-78068875D01*
X117840206Y-78153252D01*
X117699893Y-78211371D01*
X117600589Y-78231124D01*
X117550938Y-78241000D01*
X117399062Y-78241000D01*
X117349411Y-78231124D01*
X117250107Y-78211371D01*
X117109794Y-78153252D01*
X116983516Y-78068875D01*
X116876125Y-77961484D01*
X116791748Y-77835206D01*
X116733629Y-77694893D01*
X116713643Y-77594417D01*
X116704000Y-77545938D01*
X116704000Y-77394062D01*
X116719731Y-77314976D01*
X116733629Y-77245107D01*
X116791748Y-77104794D01*
X116876125Y-76978516D01*
X116983516Y-76871125D01*
X117109794Y-76786748D01*
X117250107Y-76728629D01*
X117349411Y-76708876D01*
X117399062Y-76699000D01*
X117550938Y-76699000D01*
X117600589Y-76708876D01*
X117600589Y-76708876D01*
G37*
G36*
X145581823Y-75996313D02*
G01*
X145742242Y-76044976D01*
X145874906Y-76115886D01*
X145890078Y-76123996D01*
X146019659Y-76230341D01*
X146126004Y-76359922D01*
X146126005Y-76359924D01*
X146205024Y-76507758D01*
X146253687Y-76668177D01*
X146270117Y-76835000D01*
X146253687Y-77001823D01*
X146205024Y-77162242D01*
X146149397Y-77266313D01*
X146126004Y-77310078D01*
X146019659Y-77439659D01*
X145890078Y-77546004D01*
X145890076Y-77546005D01*
X145742242Y-77625024D01*
X145581823Y-77673687D01*
X145456804Y-77686000D01*
X145373196Y-77686000D01*
X145248177Y-77673687D01*
X145087758Y-77625024D01*
X144939924Y-77546005D01*
X144939922Y-77546004D01*
X144810341Y-77439659D01*
X144703996Y-77310078D01*
X144680603Y-77266313D01*
X144624976Y-77162242D01*
X144576313Y-77001823D01*
X144559883Y-76835000D01*
X144576313Y-76668177D01*
X144624976Y-76507758D01*
X144703995Y-76359924D01*
X144703996Y-76359922D01*
X144810341Y-76230341D01*
X144939922Y-76123996D01*
X144955094Y-76115886D01*
X145087758Y-76044976D01*
X145248177Y-75996313D01*
X145373196Y-75984000D01*
X145456804Y-75984000D01*
X145581823Y-75996313D01*
X145581823Y-75996313D01*
G37*
G36*
X137961823Y-75996313D02*
G01*
X138122242Y-76044976D01*
X138254906Y-76115886D01*
X138270078Y-76123996D01*
X138399659Y-76230341D01*
X138506004Y-76359922D01*
X138506005Y-76359924D01*
X138585024Y-76507758D01*
X138633687Y-76668177D01*
X138650117Y-76835000D01*
X138633687Y-77001823D01*
X138585024Y-77162242D01*
X138529397Y-77266313D01*
X138506004Y-77310078D01*
X138399659Y-77439659D01*
X138270078Y-77546004D01*
X138270076Y-77546005D01*
X138122242Y-77625024D01*
X137961823Y-77673687D01*
X137836804Y-77686000D01*
X137753196Y-77686000D01*
X137628177Y-77673687D01*
X137467758Y-77625024D01*
X137319924Y-77546005D01*
X137319922Y-77546004D01*
X137190341Y-77439659D01*
X137083996Y-77310078D01*
X137060603Y-77266313D01*
X137004976Y-77162242D01*
X136956313Y-77001823D01*
X136939883Y-76835000D01*
X136956313Y-76668177D01*
X137004976Y-76507758D01*
X137083995Y-76359924D01*
X137083996Y-76359922D01*
X137190341Y-76230341D01*
X137319922Y-76123996D01*
X137335094Y-76115886D01*
X137467758Y-76044976D01*
X137628177Y-75996313D01*
X137753196Y-75984000D01*
X137836804Y-75984000D01*
X137961823Y-75996313D01*
X137961823Y-75996313D01*
G37*
G36*
X165983228Y-75381703D02*
G01*
X166138100Y-75445853D01*
X166277481Y-75538985D01*
X166396015Y-75657519D01*
X166489147Y-75796900D01*
X166553297Y-75951772D01*
X166586000Y-76116184D01*
X166586000Y-76283816D01*
X166553297Y-76448228D01*
X166489147Y-76603100D01*
X166396015Y-76742481D01*
X166277481Y-76861015D01*
X166138100Y-76954147D01*
X165983228Y-77018297D01*
X165818816Y-77051000D01*
X165651184Y-77051000D01*
X165486772Y-77018297D01*
X165331900Y-76954147D01*
X165192519Y-76861015D01*
X165073985Y-76742481D01*
X164980853Y-76603100D01*
X164916703Y-76448228D01*
X164884000Y-76283816D01*
X164884000Y-76116184D01*
X164916703Y-75951772D01*
X164980853Y-75796900D01*
X165073985Y-75657519D01*
X165192519Y-75538985D01*
X165331900Y-75445853D01*
X165486772Y-75381703D01*
X165651184Y-75349000D01*
X165818816Y-75349000D01*
X165983228Y-75381703D01*
X165983228Y-75381703D01*
G37*
G36*
X160821823Y-75361313D02*
G01*
X160982242Y-75409976D01*
X161049361Y-75445852D01*
X161130078Y-75488996D01*
X161259659Y-75595341D01*
X161366004Y-75724922D01*
X161366005Y-75724924D01*
X161445024Y-75872758D01*
X161493687Y-76033177D01*
X161510117Y-76200000D01*
X161493687Y-76366823D01*
X161445024Y-76527242D01*
X161404477Y-76603100D01*
X161366004Y-76675078D01*
X161259659Y-76804659D01*
X161130078Y-76911004D01*
X161130076Y-76911005D01*
X160982242Y-76990024D01*
X160821823Y-77038687D01*
X160696804Y-77051000D01*
X160613196Y-77051000D01*
X160488177Y-77038687D01*
X160327758Y-76990024D01*
X160179924Y-76911005D01*
X160179922Y-76911004D01*
X160050341Y-76804659D01*
X159943996Y-76675078D01*
X159905523Y-76603100D01*
X159864976Y-76527242D01*
X159816313Y-76366823D01*
X159799883Y-76200000D01*
X159816313Y-76033177D01*
X159864976Y-75872758D01*
X159943995Y-75724924D01*
X159943996Y-75724922D01*
X160050341Y-75595341D01*
X160179922Y-75488996D01*
X160260639Y-75445852D01*
X160327758Y-75409976D01*
X160488177Y-75361313D01*
X160613196Y-75349000D01*
X160696804Y-75349000D01*
X160821823Y-75361313D01*
X160821823Y-75361313D01*
G37*
G36*
X150743228Y-75381703D02*
G01*
X150898100Y-75445853D01*
X151037481Y-75538985D01*
X151156015Y-75657519D01*
X151249147Y-75796900D01*
X151313297Y-75951772D01*
X151346000Y-76116184D01*
X151346000Y-76283816D01*
X151313297Y-76448228D01*
X151249147Y-76603100D01*
X151156015Y-76742481D01*
X151037481Y-76861015D01*
X150898100Y-76954147D01*
X150743228Y-77018297D01*
X150578816Y-77051000D01*
X150411184Y-77051000D01*
X150246772Y-77018297D01*
X150091900Y-76954147D01*
X149952519Y-76861015D01*
X149833985Y-76742481D01*
X149740853Y-76603100D01*
X149676703Y-76448228D01*
X149644000Y-76283816D01*
X149644000Y-76116184D01*
X149676703Y-75951772D01*
X149740853Y-75796900D01*
X149833985Y-75657519D01*
X149952519Y-75538985D01*
X150091900Y-75445853D01*
X150246772Y-75381703D01*
X150411184Y-75349000D01*
X150578816Y-75349000D01*
X150743228Y-75381703D01*
X150743228Y-75381703D01*
G37*
G36*
X67489294Y-74663633D02*
G01*
X67661695Y-74715931D01*
X67820583Y-74800858D01*
X67959849Y-74915151D01*
X68074142Y-75054417D01*
X68159069Y-75213305D01*
X68211367Y-75385706D01*
X68229025Y-75565000D01*
X68211367Y-75744294D01*
X68159069Y-75916695D01*
X68074142Y-76075583D01*
X67959849Y-76214849D01*
X67820583Y-76329142D01*
X67661695Y-76414069D01*
X67489294Y-76466367D01*
X67354931Y-76479600D01*
X67265069Y-76479600D01*
X67130706Y-76466367D01*
X66958305Y-76414069D01*
X66799417Y-76329142D01*
X66660151Y-76214849D01*
X66545858Y-76075583D01*
X66460931Y-75916695D01*
X66408633Y-75744294D01*
X66390975Y-75565000D01*
X66408633Y-75385706D01*
X66460931Y-75213305D01*
X66545858Y-75054417D01*
X66660151Y-74915151D01*
X66799417Y-74800858D01*
X66958305Y-74715931D01*
X67130706Y-74663633D01*
X67265069Y-74650400D01*
X67354931Y-74650400D01*
X67489294Y-74663633D01*
X67489294Y-74663633D01*
G37*
G36*
X64949294Y-74663633D02*
G01*
X65121695Y-74715931D01*
X65280583Y-74800858D01*
X65419849Y-74915151D01*
X65534142Y-75054417D01*
X65619069Y-75213305D01*
X65671367Y-75385706D01*
X65689025Y-75565000D01*
X65671367Y-75744294D01*
X65619069Y-75916695D01*
X65534142Y-76075583D01*
X65419849Y-76214849D01*
X65280583Y-76329142D01*
X65121695Y-76414069D01*
X64949294Y-76466367D01*
X64814931Y-76479600D01*
X64725069Y-76479600D01*
X64590706Y-76466367D01*
X64418305Y-76414069D01*
X64259417Y-76329142D01*
X64120151Y-76214849D01*
X64005858Y-76075583D01*
X63920931Y-75916695D01*
X63868633Y-75744294D01*
X63850975Y-75565000D01*
X63868633Y-75385706D01*
X63920931Y-75213305D01*
X64005858Y-75054417D01*
X64120151Y-74915151D01*
X64259417Y-74800858D01*
X64418305Y-74715931D01*
X64590706Y-74663633D01*
X64725069Y-74650400D01*
X64814931Y-74650400D01*
X64949294Y-74663633D01*
X64949294Y-74663633D01*
G37*
G36*
X128486000Y-76416000D02*
G01*
X126784000Y-76416000D01*
X126784000Y-74714000D01*
X128486000Y-74714000D01*
X128486000Y-76416000D01*
X128486000Y-76416000D01*
G37*
G36*
X137961823Y-73456313D02*
G01*
X138122242Y-73504976D01*
X138254906Y-73575886D01*
X138270078Y-73583996D01*
X138399659Y-73690341D01*
X138506004Y-73819922D01*
X138506005Y-73819924D01*
X138585024Y-73967758D01*
X138633687Y-74128177D01*
X138650117Y-74295000D01*
X138633687Y-74461823D01*
X138585024Y-74622242D01*
X138514114Y-74754906D01*
X138506004Y-74770078D01*
X138399659Y-74899659D01*
X138270078Y-75006004D01*
X138270076Y-75006005D01*
X138122242Y-75085024D01*
X137961823Y-75133687D01*
X137836804Y-75146000D01*
X137753196Y-75146000D01*
X137628177Y-75133687D01*
X137467758Y-75085024D01*
X137319924Y-75006005D01*
X137319922Y-75006004D01*
X137190341Y-74899659D01*
X137083996Y-74770078D01*
X137075886Y-74754906D01*
X137004976Y-74622242D01*
X136956313Y-74461823D01*
X136939883Y-74295000D01*
X136956313Y-74128177D01*
X137004976Y-73967758D01*
X137083995Y-73819924D01*
X137083996Y-73819922D01*
X137190341Y-73690341D01*
X137319922Y-73583996D01*
X137335094Y-73575886D01*
X137467758Y-73504976D01*
X137628177Y-73456313D01*
X137753196Y-73444000D01*
X137836804Y-73444000D01*
X137961823Y-73456313D01*
X137961823Y-73456313D01*
G37*
G36*
X145581823Y-73456313D02*
G01*
X145742242Y-73504976D01*
X145874906Y-73575886D01*
X145890078Y-73583996D01*
X146019659Y-73690341D01*
X146126004Y-73819922D01*
X146126005Y-73819924D01*
X146205024Y-73967758D01*
X146253687Y-74128177D01*
X146270117Y-74295000D01*
X146253687Y-74461823D01*
X146205024Y-74622242D01*
X146134114Y-74754906D01*
X146126004Y-74770078D01*
X146019659Y-74899659D01*
X145890078Y-75006004D01*
X145890076Y-75006005D01*
X145742242Y-75085024D01*
X145581823Y-75133687D01*
X145456804Y-75146000D01*
X145373196Y-75146000D01*
X145248177Y-75133687D01*
X145087758Y-75085024D01*
X144939924Y-75006005D01*
X144939922Y-75006004D01*
X144810341Y-74899659D01*
X144703996Y-74770078D01*
X144695886Y-74754906D01*
X144624976Y-74622242D01*
X144576313Y-74461823D01*
X144559883Y-74295000D01*
X144576313Y-74128177D01*
X144624976Y-73967758D01*
X144703995Y-73819924D01*
X144703996Y-73819922D01*
X144810341Y-73690341D01*
X144939922Y-73583996D01*
X144955094Y-73575886D01*
X145087758Y-73504976D01*
X145248177Y-73456313D01*
X145373196Y-73444000D01*
X145456804Y-73444000D01*
X145581823Y-73456313D01*
X145581823Y-73456313D01*
G37*
G36*
X67489294Y-72123633D02*
G01*
X67661695Y-72175931D01*
X67820583Y-72260858D01*
X67959849Y-72375151D01*
X68074142Y-72514417D01*
X68159069Y-72673305D01*
X68211367Y-72845706D01*
X68229025Y-73025000D01*
X68211367Y-73204294D01*
X68159069Y-73376695D01*
X68074142Y-73535583D01*
X67959849Y-73674849D01*
X67820583Y-73789142D01*
X67661695Y-73874069D01*
X67489294Y-73926367D01*
X67354931Y-73939600D01*
X67265069Y-73939600D01*
X67130706Y-73926367D01*
X66958305Y-73874069D01*
X66799417Y-73789142D01*
X66660151Y-73674849D01*
X66545858Y-73535583D01*
X66460931Y-73376695D01*
X66408633Y-73204294D01*
X66390975Y-73025000D01*
X66408633Y-72845706D01*
X66460931Y-72673305D01*
X66545858Y-72514417D01*
X66660151Y-72375151D01*
X66799417Y-72260858D01*
X66958305Y-72175931D01*
X67130706Y-72123633D01*
X67265069Y-72110400D01*
X67354931Y-72110400D01*
X67489294Y-72123633D01*
X67489294Y-72123633D01*
G37*
G36*
X64949294Y-72123633D02*
G01*
X65121695Y-72175931D01*
X65280583Y-72260858D01*
X65419849Y-72375151D01*
X65534142Y-72514417D01*
X65619069Y-72673305D01*
X65671367Y-72845706D01*
X65689025Y-73025000D01*
X65671367Y-73204294D01*
X65619069Y-73376695D01*
X65534142Y-73535583D01*
X65419849Y-73674849D01*
X65280583Y-73789142D01*
X65121695Y-73874069D01*
X64949294Y-73926367D01*
X64814931Y-73939600D01*
X64725069Y-73939600D01*
X64590706Y-73926367D01*
X64418305Y-73874069D01*
X64259417Y-73789142D01*
X64120151Y-73674849D01*
X64005858Y-73535583D01*
X63920931Y-73376695D01*
X63868633Y-73204294D01*
X63850975Y-73025000D01*
X63868633Y-72845706D01*
X63920931Y-72673305D01*
X64005858Y-72514417D01*
X64120151Y-72375151D01*
X64259417Y-72260858D01*
X64418305Y-72175931D01*
X64590706Y-72123633D01*
X64725069Y-72110400D01*
X64814931Y-72110400D01*
X64949294Y-72123633D01*
X64949294Y-72123633D01*
G37*
G36*
X97956823Y-72186313D02*
G01*
X98117242Y-72234976D01*
X98184361Y-72270852D01*
X98265078Y-72313996D01*
X98394659Y-72420341D01*
X98501004Y-72549922D01*
X98501005Y-72549924D01*
X98580024Y-72697758D01*
X98628687Y-72858177D01*
X98645117Y-73025000D01*
X98628687Y-73191823D01*
X98580024Y-73352242D01*
X98539477Y-73428100D01*
X98501004Y-73500078D01*
X98394659Y-73629659D01*
X98265078Y-73736004D01*
X98265076Y-73736005D01*
X98117242Y-73815024D01*
X97956823Y-73863687D01*
X97831804Y-73876000D01*
X97748196Y-73876000D01*
X97623177Y-73863687D01*
X97462758Y-73815024D01*
X97314924Y-73736005D01*
X97314922Y-73736004D01*
X97185341Y-73629659D01*
X97078996Y-73500078D01*
X97040523Y-73428100D01*
X96999976Y-73352242D01*
X96951313Y-73191823D01*
X96934883Y-73025000D01*
X96951313Y-72858177D01*
X96999976Y-72697758D01*
X97078995Y-72549924D01*
X97078996Y-72549922D01*
X97185341Y-72420341D01*
X97314922Y-72313996D01*
X97395639Y-72270852D01*
X97462758Y-72234976D01*
X97623177Y-72186313D01*
X97748196Y-72174000D01*
X97831804Y-72174000D01*
X97956823Y-72186313D01*
X97956823Y-72186313D01*
G37*
G36*
X108198228Y-72206703D02*
G01*
X108353100Y-72270853D01*
X108492481Y-72363985D01*
X108611015Y-72482519D01*
X108704147Y-72621900D01*
X108768297Y-72776772D01*
X108801000Y-72941184D01*
X108801000Y-73108816D01*
X108768297Y-73273228D01*
X108704147Y-73428100D01*
X108611015Y-73567481D01*
X108492481Y-73686015D01*
X108353100Y-73779147D01*
X108198228Y-73843297D01*
X108033816Y-73876000D01*
X107866184Y-73876000D01*
X107701772Y-73843297D01*
X107546900Y-73779147D01*
X107407519Y-73686015D01*
X107288985Y-73567481D01*
X107195853Y-73428100D01*
X107131703Y-73273228D01*
X107099000Y-73108816D01*
X107099000Y-72941184D01*
X107131703Y-72776772D01*
X107195853Y-72621900D01*
X107288985Y-72482519D01*
X107407519Y-72363985D01*
X107546900Y-72270853D01*
X107701772Y-72206703D01*
X107866184Y-72174000D01*
X108033816Y-72174000D01*
X108198228Y-72206703D01*
X108198228Y-72206703D01*
G37*
G36*
X150743228Y-71571703D02*
G01*
X150898100Y-71635853D01*
X151037481Y-71728985D01*
X151156015Y-71847519D01*
X151249147Y-71986900D01*
X151313297Y-72141772D01*
X151346000Y-72306184D01*
X151346000Y-72473816D01*
X151313297Y-72638228D01*
X151249147Y-72793100D01*
X151156015Y-72932481D01*
X151037481Y-73051015D01*
X150898100Y-73144147D01*
X150743228Y-73208297D01*
X150578816Y-73241000D01*
X150411184Y-73241000D01*
X150246772Y-73208297D01*
X150091900Y-73144147D01*
X149952519Y-73051015D01*
X149833985Y-72932481D01*
X149740853Y-72793100D01*
X149676703Y-72638228D01*
X149644000Y-72473816D01*
X149644000Y-72306184D01*
X149676703Y-72141772D01*
X149740853Y-71986900D01*
X149833985Y-71847519D01*
X149952519Y-71728985D01*
X150091900Y-71635853D01*
X150246772Y-71571703D01*
X150411184Y-71539000D01*
X150578816Y-71539000D01*
X150743228Y-71571703D01*
X150743228Y-71571703D01*
G37*
G36*
X160821823Y-71551313D02*
G01*
X160982242Y-71599976D01*
X161114906Y-71670886D01*
X161130078Y-71678996D01*
X161259659Y-71785341D01*
X161366004Y-71914922D01*
X161366005Y-71914924D01*
X161445024Y-72062758D01*
X161493687Y-72223177D01*
X161510117Y-72390000D01*
X161493687Y-72556823D01*
X161445024Y-72717242D01*
X161404477Y-72793100D01*
X161366004Y-72865078D01*
X161259659Y-72994659D01*
X161130078Y-73101004D01*
X161130076Y-73101005D01*
X160982242Y-73180024D01*
X160821823Y-73228687D01*
X160696804Y-73241000D01*
X160613196Y-73241000D01*
X160488177Y-73228687D01*
X160327758Y-73180024D01*
X160179924Y-73101005D01*
X160179922Y-73101004D01*
X160050341Y-72994659D01*
X159943996Y-72865078D01*
X159905523Y-72793100D01*
X159864976Y-72717242D01*
X159816313Y-72556823D01*
X159799883Y-72390000D01*
X159816313Y-72223177D01*
X159864976Y-72062758D01*
X159943995Y-71914924D01*
X159943996Y-71914922D01*
X160050341Y-71785341D01*
X160179922Y-71678996D01*
X160195094Y-71670886D01*
X160327758Y-71599976D01*
X160488177Y-71551313D01*
X160613196Y-71539000D01*
X160696804Y-71539000D01*
X160821823Y-71551313D01*
X160821823Y-71551313D01*
G37*
G36*
X137961823Y-70916313D02*
G01*
X138122242Y-70964976D01*
X138254906Y-71035886D01*
X138270078Y-71043996D01*
X138399659Y-71150341D01*
X138506004Y-71279922D01*
X138506005Y-71279924D01*
X138585024Y-71427758D01*
X138633687Y-71588177D01*
X138650117Y-71755000D01*
X138633687Y-71921823D01*
X138585024Y-72082242D01*
X138529397Y-72186313D01*
X138506004Y-72230078D01*
X138399659Y-72359659D01*
X138270078Y-72466004D01*
X138270076Y-72466005D01*
X138122242Y-72545024D01*
X137961823Y-72593687D01*
X137836804Y-72606000D01*
X137753196Y-72606000D01*
X137628177Y-72593687D01*
X137467758Y-72545024D01*
X137319924Y-72466005D01*
X137319922Y-72466004D01*
X137190341Y-72359659D01*
X137083996Y-72230078D01*
X137060603Y-72186313D01*
X137004976Y-72082242D01*
X136956313Y-71921823D01*
X136939883Y-71755000D01*
X136956313Y-71588177D01*
X137004976Y-71427758D01*
X137083995Y-71279924D01*
X137083996Y-71279922D01*
X137190341Y-71150341D01*
X137319922Y-71043996D01*
X137335094Y-71035886D01*
X137467758Y-70964976D01*
X137628177Y-70916313D01*
X137753196Y-70904000D01*
X137836804Y-70904000D01*
X137961823Y-70916313D01*
X137961823Y-70916313D01*
G37*
G36*
X145581823Y-70916313D02*
G01*
X145742242Y-70964976D01*
X145874906Y-71035886D01*
X145890078Y-71043996D01*
X146019659Y-71150341D01*
X146126004Y-71279922D01*
X146126005Y-71279924D01*
X146205024Y-71427758D01*
X146253687Y-71588177D01*
X146270117Y-71755000D01*
X146253687Y-71921823D01*
X146205024Y-72082242D01*
X146149397Y-72186313D01*
X146126004Y-72230078D01*
X146019659Y-72359659D01*
X145890078Y-72466004D01*
X145890076Y-72466005D01*
X145742242Y-72545024D01*
X145581823Y-72593687D01*
X145456804Y-72606000D01*
X145373196Y-72606000D01*
X145248177Y-72593687D01*
X145087758Y-72545024D01*
X144939924Y-72466005D01*
X144939922Y-72466004D01*
X144810341Y-72359659D01*
X144703996Y-72230078D01*
X144680603Y-72186313D01*
X144624976Y-72082242D01*
X144576313Y-71921823D01*
X144559883Y-71755000D01*
X144576313Y-71588177D01*
X144624976Y-71427758D01*
X144703995Y-71279924D01*
X144703996Y-71279922D01*
X144810341Y-71150341D01*
X144939922Y-71043996D01*
X144955094Y-71035886D01*
X145087758Y-70964976D01*
X145248177Y-70916313D01*
X145373196Y-70904000D01*
X145456804Y-70904000D01*
X145581823Y-70916313D01*
X145581823Y-70916313D01*
G37*
G36*
X121533228Y-70301703D02*
G01*
X121688100Y-70365853D01*
X121827481Y-70458985D01*
X121946015Y-70577519D01*
X122039147Y-70716900D01*
X122103297Y-70871772D01*
X122136000Y-71036184D01*
X122136000Y-71203816D01*
X122103297Y-71368228D01*
X122039147Y-71523100D01*
X121946015Y-71662481D01*
X121827481Y-71781015D01*
X121688100Y-71874147D01*
X121533228Y-71938297D01*
X121368816Y-71971000D01*
X121201184Y-71971000D01*
X121036772Y-71938297D01*
X120881900Y-71874147D01*
X120742519Y-71781015D01*
X120623985Y-71662481D01*
X120530853Y-71523100D01*
X120466703Y-71368228D01*
X120434000Y-71203816D01*
X120434000Y-71036184D01*
X120466703Y-70871772D01*
X120530853Y-70716900D01*
X120623985Y-70577519D01*
X120742519Y-70458985D01*
X120881900Y-70365853D01*
X121036772Y-70301703D01*
X121201184Y-70269000D01*
X121368816Y-70269000D01*
X121533228Y-70301703D01*
X121533228Y-70301703D01*
G37*
G36*
X131611823Y-70281313D02*
G01*
X131772242Y-70329976D01*
X131839361Y-70365852D01*
X131920078Y-70408996D01*
X132049659Y-70515341D01*
X132156004Y-70644922D01*
X132156005Y-70644924D01*
X132235024Y-70792758D01*
X132283687Y-70953177D01*
X132300117Y-71120000D01*
X132283687Y-71286823D01*
X132235024Y-71447242D01*
X132194477Y-71523100D01*
X132156004Y-71595078D01*
X132049659Y-71724659D01*
X131920078Y-71831004D01*
X131920076Y-71831005D01*
X131772242Y-71910024D01*
X131611823Y-71958687D01*
X131486804Y-71971000D01*
X131403196Y-71971000D01*
X131278177Y-71958687D01*
X131117758Y-71910024D01*
X130969924Y-71831005D01*
X130969922Y-71831004D01*
X130840341Y-71724659D01*
X130733996Y-71595078D01*
X130695523Y-71523100D01*
X130654976Y-71447242D01*
X130606313Y-71286823D01*
X130589883Y-71120000D01*
X130606313Y-70953177D01*
X130654976Y-70792758D01*
X130733995Y-70644924D01*
X130733996Y-70644922D01*
X130840341Y-70515341D01*
X130969922Y-70408996D01*
X131050639Y-70365852D01*
X131117758Y-70329976D01*
X131278177Y-70281313D01*
X131403196Y-70269000D01*
X131486804Y-70269000D01*
X131611823Y-70281313D01*
X131611823Y-70281313D01*
G37*
G36*
X90971823Y-70281313D02*
G01*
X91132242Y-70329976D01*
X91199361Y-70365852D01*
X91280078Y-70408996D01*
X91409659Y-70515341D01*
X91516004Y-70644922D01*
X91516005Y-70644924D01*
X91595024Y-70792758D01*
X91643687Y-70953177D01*
X91660117Y-71120000D01*
X91643687Y-71286823D01*
X91595024Y-71447242D01*
X91554477Y-71523100D01*
X91516004Y-71595078D01*
X91409659Y-71724659D01*
X91280078Y-71831004D01*
X91280076Y-71831005D01*
X91132242Y-71910024D01*
X90971823Y-71958687D01*
X90846804Y-71971000D01*
X90763196Y-71971000D01*
X90638177Y-71958687D01*
X90477758Y-71910024D01*
X90329924Y-71831005D01*
X90329922Y-71831004D01*
X90200341Y-71724659D01*
X90093996Y-71595078D01*
X90055523Y-71523100D01*
X90014976Y-71447242D01*
X89966313Y-71286823D01*
X89949883Y-71120000D01*
X89966313Y-70953177D01*
X90014976Y-70792758D01*
X90093995Y-70644924D01*
X90093996Y-70644922D01*
X90200341Y-70515341D01*
X90329922Y-70408996D01*
X90410639Y-70365852D01*
X90477758Y-70329976D01*
X90638177Y-70281313D01*
X90763196Y-70269000D01*
X90846804Y-70269000D01*
X90971823Y-70281313D01*
X90971823Y-70281313D01*
G37*
G36*
X65684600Y-71399600D02*
G01*
X63855400Y-71399600D01*
X63855400Y-69570400D01*
X65684600Y-69570400D01*
X65684600Y-71399600D01*
X65684600Y-71399600D01*
G37*
G36*
X67489294Y-69583633D02*
G01*
X67661695Y-69635931D01*
X67820583Y-69720858D01*
X67959849Y-69835151D01*
X68074142Y-69974417D01*
X68159069Y-70133305D01*
X68211367Y-70305706D01*
X68229025Y-70485000D01*
X68211367Y-70664294D01*
X68159069Y-70836695D01*
X68074142Y-70995583D01*
X67959849Y-71134849D01*
X67820583Y-71249142D01*
X67661695Y-71334069D01*
X67489294Y-71386367D01*
X67354931Y-71399600D01*
X67265069Y-71399600D01*
X67130706Y-71386367D01*
X66958305Y-71334069D01*
X66799417Y-71249142D01*
X66660151Y-71134849D01*
X66545858Y-70995583D01*
X66460931Y-70836695D01*
X66408633Y-70664294D01*
X66390975Y-70485000D01*
X66408633Y-70305706D01*
X66460931Y-70133305D01*
X66545858Y-69974417D01*
X66660151Y-69835151D01*
X66799417Y-69720858D01*
X66958305Y-69635931D01*
X67130706Y-69583633D01*
X67265069Y-69570400D01*
X67354931Y-69570400D01*
X67489294Y-69583633D01*
X67489294Y-69583633D01*
G37*
G36*
X80298228Y-68396703D02*
G01*
X80453100Y-68460853D01*
X80592481Y-68553985D01*
X80711015Y-68672519D01*
X80804147Y-68811900D01*
X80868297Y-68966772D01*
X80901000Y-69131184D01*
X80901000Y-69298816D01*
X80868297Y-69463228D01*
X80804147Y-69618100D01*
X80711015Y-69757481D01*
X80592481Y-69876015D01*
X80453100Y-69969147D01*
X80298228Y-70033297D01*
X80133816Y-70066000D01*
X79966184Y-70066000D01*
X79801772Y-70033297D01*
X79646900Y-69969147D01*
X79507519Y-69876015D01*
X79388985Y-69757481D01*
X79295853Y-69618100D01*
X79231703Y-69463228D01*
X79199000Y-69298816D01*
X79199000Y-69131184D01*
X79231703Y-68966772D01*
X79295853Y-68811900D01*
X79388985Y-68672519D01*
X79507519Y-68553985D01*
X79646900Y-68460853D01*
X79801772Y-68396703D01*
X79966184Y-68364000D01*
X80133816Y-68364000D01*
X80298228Y-68396703D01*
X80298228Y-68396703D01*
G37*
G36*
X83401000Y-70066000D02*
G01*
X81699000Y-70066000D01*
X81699000Y-68364000D01*
X83401000Y-68364000D01*
X83401000Y-70066000D01*
X83401000Y-70066000D01*
G37*
G36*
X137961823Y-68376313D02*
G01*
X138122242Y-68424976D01*
X138189361Y-68460852D01*
X138270078Y-68503996D01*
X138399659Y-68610341D01*
X138506004Y-68739922D01*
X138506005Y-68739924D01*
X138585024Y-68887758D01*
X138633687Y-69048177D01*
X138650117Y-69215000D01*
X138633687Y-69381823D01*
X138585024Y-69542242D01*
X138514114Y-69674906D01*
X138506004Y-69690078D01*
X138399659Y-69819659D01*
X138270078Y-69926004D01*
X138270076Y-69926005D01*
X138122242Y-70005024D01*
X137961823Y-70053687D01*
X137836804Y-70066000D01*
X137753196Y-70066000D01*
X137628177Y-70053687D01*
X137467758Y-70005024D01*
X137319924Y-69926005D01*
X137319922Y-69926004D01*
X137190341Y-69819659D01*
X137083996Y-69690078D01*
X137075886Y-69674906D01*
X137004976Y-69542242D01*
X136956313Y-69381823D01*
X136939883Y-69215000D01*
X136956313Y-69048177D01*
X137004976Y-68887758D01*
X137083995Y-68739924D01*
X137083996Y-68739922D01*
X137190341Y-68610341D01*
X137319922Y-68503996D01*
X137400639Y-68460852D01*
X137467758Y-68424976D01*
X137628177Y-68376313D01*
X137753196Y-68364000D01*
X137836804Y-68364000D01*
X137961823Y-68376313D01*
X137961823Y-68376313D01*
G37*
G36*
X145581823Y-68376313D02*
G01*
X145742242Y-68424976D01*
X145809361Y-68460852D01*
X145890078Y-68503996D01*
X146019659Y-68610341D01*
X146126004Y-68739922D01*
X146126005Y-68739924D01*
X146205024Y-68887758D01*
X146253687Y-69048177D01*
X146270117Y-69215000D01*
X146253687Y-69381823D01*
X146205024Y-69542242D01*
X146134114Y-69674906D01*
X146126004Y-69690078D01*
X146019659Y-69819659D01*
X145890078Y-69926004D01*
X145890076Y-69926005D01*
X145742242Y-70005024D01*
X145581823Y-70053687D01*
X145456804Y-70066000D01*
X145373196Y-70066000D01*
X145248177Y-70053687D01*
X145087758Y-70005024D01*
X144939924Y-69926005D01*
X144939922Y-69926004D01*
X144810341Y-69819659D01*
X144703996Y-69690078D01*
X144695886Y-69674906D01*
X144624976Y-69542242D01*
X144576313Y-69381823D01*
X144559883Y-69215000D01*
X144576313Y-69048177D01*
X144624976Y-68887758D01*
X144703995Y-68739924D01*
X144703996Y-68739922D01*
X144810341Y-68610341D01*
X144939922Y-68503996D01*
X145020639Y-68460852D01*
X145087758Y-68424976D01*
X145248177Y-68376313D01*
X145373196Y-68364000D01*
X145456804Y-68364000D01*
X145581823Y-68376313D01*
X145581823Y-68376313D01*
G37*
G36*
X150743228Y-67761703D02*
G01*
X150898100Y-67825853D01*
X151037481Y-67918985D01*
X151156015Y-68037519D01*
X151249147Y-68176900D01*
X151313297Y-68331772D01*
X151346000Y-68496184D01*
X151346000Y-68663816D01*
X151313297Y-68828228D01*
X151249147Y-68983100D01*
X151156015Y-69122481D01*
X151037481Y-69241015D01*
X150898100Y-69334147D01*
X150743228Y-69398297D01*
X150578816Y-69431000D01*
X150411184Y-69431000D01*
X150246772Y-69398297D01*
X150091900Y-69334147D01*
X149952519Y-69241015D01*
X149833985Y-69122481D01*
X149740853Y-68983100D01*
X149676703Y-68828228D01*
X149644000Y-68663816D01*
X149644000Y-68496184D01*
X149676703Y-68331772D01*
X149740853Y-68176900D01*
X149833985Y-68037519D01*
X149952519Y-67918985D01*
X150091900Y-67825853D01*
X150246772Y-67761703D01*
X150411184Y-67729000D01*
X150578816Y-67729000D01*
X150743228Y-67761703D01*
X150743228Y-67761703D01*
G37*
G36*
X160821823Y-67741313D02*
G01*
X160982242Y-67789976D01*
X161049361Y-67825852D01*
X161130078Y-67868996D01*
X161259659Y-67975341D01*
X161366004Y-68104922D01*
X161366005Y-68104924D01*
X161445024Y-68252758D01*
X161493687Y-68413177D01*
X161510117Y-68580000D01*
X161493687Y-68746823D01*
X161445024Y-68907242D01*
X161404477Y-68983100D01*
X161366004Y-69055078D01*
X161259659Y-69184659D01*
X161130078Y-69291004D01*
X161130076Y-69291005D01*
X160982242Y-69370024D01*
X160821823Y-69418687D01*
X160696804Y-69431000D01*
X160613196Y-69431000D01*
X160488177Y-69418687D01*
X160327758Y-69370024D01*
X160179924Y-69291005D01*
X160179922Y-69291004D01*
X160050341Y-69184659D01*
X159943996Y-69055078D01*
X159905523Y-68983100D01*
X159864976Y-68907242D01*
X159816313Y-68746823D01*
X159799883Y-68580000D01*
X159816313Y-68413177D01*
X159864976Y-68252758D01*
X159943995Y-68104924D01*
X159943996Y-68104922D01*
X160050341Y-67975341D01*
X160179922Y-67868996D01*
X160260639Y-67825852D01*
X160327758Y-67789976D01*
X160488177Y-67741313D01*
X160613196Y-67729000D01*
X160696804Y-67729000D01*
X160821823Y-67741313D01*
X160821823Y-67741313D01*
G37*
G36*
X90971823Y-65836313D02*
G01*
X91132242Y-65884976D01*
X91199361Y-65920852D01*
X91280078Y-65963996D01*
X91409659Y-66070341D01*
X91516004Y-66199922D01*
X91516005Y-66199924D01*
X91595024Y-66347758D01*
X91643687Y-66508177D01*
X91660117Y-66675000D01*
X91643687Y-66841823D01*
X91595024Y-67002242D01*
X91554477Y-67078100D01*
X91516004Y-67150078D01*
X91409659Y-67279659D01*
X91280078Y-67386004D01*
X91280076Y-67386005D01*
X91132242Y-67465024D01*
X90971823Y-67513687D01*
X90846804Y-67526000D01*
X90763196Y-67526000D01*
X90638177Y-67513687D01*
X90477758Y-67465024D01*
X90329924Y-67386005D01*
X90329922Y-67386004D01*
X90200341Y-67279659D01*
X90093996Y-67150078D01*
X90055523Y-67078100D01*
X90014976Y-67002242D01*
X89966313Y-66841823D01*
X89949883Y-66675000D01*
X89966313Y-66508177D01*
X90014976Y-66347758D01*
X90093995Y-66199924D01*
X90093996Y-66199922D01*
X90200341Y-66070341D01*
X90329922Y-65963996D01*
X90410639Y-65920852D01*
X90477758Y-65884976D01*
X90638177Y-65836313D01*
X90763196Y-65824000D01*
X90846804Y-65824000D01*
X90971823Y-65836313D01*
X90971823Y-65836313D01*
G37*
G36*
X101213228Y-65856703D02*
G01*
X101368100Y-65920853D01*
X101507481Y-66013985D01*
X101626015Y-66132519D01*
X101719147Y-66271900D01*
X101783297Y-66426772D01*
X101816000Y-66591184D01*
X101816000Y-66758816D01*
X101783297Y-66923228D01*
X101719147Y-67078100D01*
X101626015Y-67217481D01*
X101507481Y-67336015D01*
X101368100Y-67429147D01*
X101213228Y-67493297D01*
X101048816Y-67526000D01*
X100881184Y-67526000D01*
X100716772Y-67493297D01*
X100561900Y-67429147D01*
X100422519Y-67336015D01*
X100303985Y-67217481D01*
X100210853Y-67078100D01*
X100146703Y-66923228D01*
X100114000Y-66758816D01*
X100114000Y-66591184D01*
X100146703Y-66426772D01*
X100210853Y-66271900D01*
X100303985Y-66132519D01*
X100422519Y-66013985D01*
X100561900Y-65920853D01*
X100716772Y-65856703D01*
X100881184Y-65824000D01*
X101048816Y-65824000D01*
X101213228Y-65856703D01*
X101213228Y-65856703D01*
G37*
G36*
X106293228Y-65856703D02*
G01*
X106448100Y-65920853D01*
X106587481Y-66013985D01*
X106706015Y-66132519D01*
X106799147Y-66271900D01*
X106863297Y-66426772D01*
X106896000Y-66591184D01*
X106896000Y-66758816D01*
X106863297Y-66923228D01*
X106799147Y-67078100D01*
X106706015Y-67217481D01*
X106587481Y-67336015D01*
X106448100Y-67429147D01*
X106293228Y-67493297D01*
X106128816Y-67526000D01*
X105961184Y-67526000D01*
X105796772Y-67493297D01*
X105641900Y-67429147D01*
X105502519Y-67336015D01*
X105383985Y-67217481D01*
X105290853Y-67078100D01*
X105226703Y-66923228D01*
X105194000Y-66758816D01*
X105194000Y-66591184D01*
X105226703Y-66426772D01*
X105290853Y-66271900D01*
X105383985Y-66132519D01*
X105502519Y-66013985D01*
X105641900Y-65920853D01*
X105796772Y-65856703D01*
X105961184Y-65824000D01*
X106128816Y-65824000D01*
X106293228Y-65856703D01*
X106293228Y-65856703D01*
G37*
G36*
X116371823Y-65836313D02*
G01*
X116532242Y-65884976D01*
X116599361Y-65920852D01*
X116680078Y-65963996D01*
X116809659Y-66070341D01*
X116916004Y-66199922D01*
X116916005Y-66199924D01*
X116995024Y-66347758D01*
X117043687Y-66508177D01*
X117060117Y-66675000D01*
X117043687Y-66841823D01*
X116995024Y-67002242D01*
X116954477Y-67078100D01*
X116916004Y-67150078D01*
X116809659Y-67279659D01*
X116680078Y-67386004D01*
X116680076Y-67386005D01*
X116532242Y-67465024D01*
X116371823Y-67513687D01*
X116246804Y-67526000D01*
X116163196Y-67526000D01*
X116038177Y-67513687D01*
X115877758Y-67465024D01*
X115729924Y-67386005D01*
X115729922Y-67386004D01*
X115600341Y-67279659D01*
X115493996Y-67150078D01*
X115455523Y-67078100D01*
X115414976Y-67002242D01*
X115366313Y-66841823D01*
X115349883Y-66675000D01*
X115366313Y-66508177D01*
X115414976Y-66347758D01*
X115493995Y-66199924D01*
X115493996Y-66199922D01*
X115600341Y-66070341D01*
X115729922Y-65963996D01*
X115810639Y-65920852D01*
X115877758Y-65884976D01*
X116038177Y-65836313D01*
X116163196Y-65824000D01*
X116246804Y-65824000D01*
X116371823Y-65836313D01*
X116371823Y-65836313D01*
G37*
G36*
X131611823Y-65836313D02*
G01*
X131772242Y-65884976D01*
X131839361Y-65920852D01*
X131920078Y-65963996D01*
X132049659Y-66070341D01*
X132156004Y-66199922D01*
X132156005Y-66199924D01*
X132235024Y-66347758D01*
X132283687Y-66508177D01*
X132300117Y-66675000D01*
X132283687Y-66841823D01*
X132235024Y-67002242D01*
X132194477Y-67078100D01*
X132156004Y-67150078D01*
X132049659Y-67279659D01*
X131920078Y-67386004D01*
X131920076Y-67386005D01*
X131772242Y-67465024D01*
X131611823Y-67513687D01*
X131486804Y-67526000D01*
X131403196Y-67526000D01*
X131278177Y-67513687D01*
X131117758Y-67465024D01*
X130969924Y-67386005D01*
X130969922Y-67386004D01*
X130840341Y-67279659D01*
X130733996Y-67150078D01*
X130695523Y-67078100D01*
X130654976Y-67002242D01*
X130606313Y-66841823D01*
X130589883Y-66675000D01*
X130606313Y-66508177D01*
X130654976Y-66347758D01*
X130733995Y-66199924D01*
X130733996Y-66199922D01*
X130840341Y-66070341D01*
X130969922Y-65963996D01*
X131050639Y-65920852D01*
X131117758Y-65884976D01*
X131278177Y-65836313D01*
X131403196Y-65824000D01*
X131486804Y-65824000D01*
X131611823Y-65836313D01*
X131611823Y-65836313D01*
G37*
G36*
X121533228Y-65856703D02*
G01*
X121688100Y-65920853D01*
X121827481Y-66013985D01*
X121946015Y-66132519D01*
X122039147Y-66271900D01*
X122103297Y-66426772D01*
X122136000Y-66591184D01*
X122136000Y-66758816D01*
X122103297Y-66923228D01*
X122039147Y-67078100D01*
X121946015Y-67217481D01*
X121827481Y-67336015D01*
X121688100Y-67429147D01*
X121533228Y-67493297D01*
X121368816Y-67526000D01*
X121201184Y-67526000D01*
X121036772Y-67493297D01*
X120881900Y-67429147D01*
X120742519Y-67336015D01*
X120623985Y-67217481D01*
X120530853Y-67078100D01*
X120466703Y-66923228D01*
X120434000Y-66758816D01*
X120434000Y-66591184D01*
X120466703Y-66426772D01*
X120530853Y-66271900D01*
X120623985Y-66132519D01*
X120742519Y-66013985D01*
X120881900Y-65920853D01*
X121036772Y-65856703D01*
X121201184Y-65824000D01*
X121368816Y-65824000D01*
X121533228Y-65856703D01*
X121533228Y-65856703D01*
G37*
G36*
X145581823Y-65836313D02*
G01*
X145742242Y-65884976D01*
X145809361Y-65920852D01*
X145890078Y-65963996D01*
X146019659Y-66070341D01*
X146126004Y-66199922D01*
X146126005Y-66199924D01*
X146205024Y-66347758D01*
X146253687Y-66508177D01*
X146270117Y-66675000D01*
X146253687Y-66841823D01*
X146205024Y-67002242D01*
X146164477Y-67078100D01*
X146126004Y-67150078D01*
X146019659Y-67279659D01*
X145890078Y-67386004D01*
X145890076Y-67386005D01*
X145742242Y-67465024D01*
X145581823Y-67513687D01*
X145456804Y-67526000D01*
X145373196Y-67526000D01*
X145248177Y-67513687D01*
X145087758Y-67465024D01*
X144939924Y-67386005D01*
X144939922Y-67386004D01*
X144810341Y-67279659D01*
X144703996Y-67150078D01*
X144665523Y-67078100D01*
X144624976Y-67002242D01*
X144576313Y-66841823D01*
X144559883Y-66675000D01*
X144576313Y-66508177D01*
X144624976Y-66347758D01*
X144703995Y-66199924D01*
X144703996Y-66199922D01*
X144810341Y-66070341D01*
X144939922Y-65963996D01*
X145020639Y-65920852D01*
X145087758Y-65884976D01*
X145248177Y-65836313D01*
X145373196Y-65824000D01*
X145456804Y-65824000D01*
X145581823Y-65836313D01*
X145581823Y-65836313D01*
G37*
G36*
X138646000Y-67526000D02*
G01*
X136944000Y-67526000D01*
X136944000Y-65824000D01*
X138646000Y-65824000D01*
X138646000Y-67526000D01*
X138646000Y-67526000D01*
G37*
G36*
X165901823Y-65201313D02*
G01*
X166062242Y-65249976D01*
X166194906Y-65320886D01*
X166210078Y-65328996D01*
X166339659Y-65435341D01*
X166446004Y-65564922D01*
X166446005Y-65564924D01*
X166525024Y-65712758D01*
X166573687Y-65873177D01*
X166590117Y-66040000D01*
X166573687Y-66206823D01*
X166525024Y-66367242D01*
X166454114Y-66499906D01*
X166446004Y-66515078D01*
X166339659Y-66644659D01*
X166210078Y-66751004D01*
X166210076Y-66751005D01*
X166062242Y-66830024D01*
X165901823Y-66878687D01*
X165776804Y-66891000D01*
X165693196Y-66891000D01*
X165568177Y-66878687D01*
X165407758Y-66830024D01*
X165259924Y-66751005D01*
X165259922Y-66751004D01*
X165130341Y-66644659D01*
X165023996Y-66515078D01*
X165015886Y-66499906D01*
X164944976Y-66367242D01*
X164896313Y-66206823D01*
X164879883Y-66040000D01*
X164896313Y-65873177D01*
X164944976Y-65712758D01*
X165023995Y-65564924D01*
X165023996Y-65564922D01*
X165130341Y-65435341D01*
X165259922Y-65328996D01*
X165275094Y-65320886D01*
X165407758Y-65249976D01*
X165568177Y-65201313D01*
X165693196Y-65189000D01*
X165776804Y-65189000D01*
X165901823Y-65201313D01*
X165901823Y-65201313D01*
G37*
G36*
X73637546Y-59575701D02*
G01*
X74019721Y-59734003D01*
X74019723Y-59734004D01*
X74363672Y-59963823D01*
X74656177Y-60256328D01*
X74885996Y-60600277D01*
X74885997Y-60600279D01*
X75044299Y-60982454D01*
X75125000Y-61388167D01*
X75125000Y-61801833D01*
X75044299Y-62207546D01*
X74885997Y-62589721D01*
X74885996Y-62589723D01*
X74656177Y-62933672D01*
X74363672Y-63226177D01*
X74019723Y-63455996D01*
X74019722Y-63455997D01*
X74019721Y-63455997D01*
X73637546Y-63614299D01*
X73231833Y-63695000D01*
X72818167Y-63695000D01*
X72412454Y-63614299D01*
X72030279Y-63455997D01*
X72030278Y-63455997D01*
X72030277Y-63455996D01*
X71686328Y-63226177D01*
X71393823Y-62933672D01*
X71164004Y-62589723D01*
X71164003Y-62589721D01*
X71005701Y-62207546D01*
X70925000Y-61801833D01*
X70925000Y-61388167D01*
X71005701Y-60982454D01*
X71164003Y-60600279D01*
X71164004Y-60600277D01*
X71393823Y-60256328D01*
X71686328Y-59963823D01*
X72030277Y-59734004D01*
X72030279Y-59734003D01*
X72412454Y-59575701D01*
X72818167Y-59495000D01*
X73231833Y-59495000D01*
X73637546Y-59575701D01*
X73637546Y-59575701D01*
G37*
G36*
X158727546Y-59575701D02*
G01*
X159109721Y-59734003D01*
X159109723Y-59734004D01*
X159453672Y-59963823D01*
X159746177Y-60256328D01*
X159975996Y-60600277D01*
X159975997Y-60600279D01*
X160134299Y-60982454D01*
X160215000Y-61388167D01*
X160215000Y-61801833D01*
X160134299Y-62207546D01*
X159975997Y-62589721D01*
X159975996Y-62589723D01*
X159746177Y-62933672D01*
X159453672Y-63226177D01*
X159109723Y-63455996D01*
X159109722Y-63455997D01*
X159109721Y-63455997D01*
X158727546Y-63614299D01*
X158321833Y-63695000D01*
X157908167Y-63695000D01*
X157502454Y-63614299D01*
X157120279Y-63455997D01*
X157120278Y-63455997D01*
X157120277Y-63455996D01*
X156776328Y-63226177D01*
X156483823Y-62933672D01*
X156254004Y-62589723D01*
X156254003Y-62589721D01*
X156095701Y-62207546D01*
X156015000Y-61801833D01*
X156015000Y-61388167D01*
X156095701Y-60982454D01*
X156254003Y-60600279D01*
X156254004Y-60600277D01*
X156483823Y-60256328D01*
X156776328Y-59963823D01*
X157120277Y-59734004D01*
X157120279Y-59734003D01*
X157502454Y-59575701D01*
X157908167Y-59495000D01*
X158321833Y-59495000D01*
X158727546Y-59575701D01*
X158727546Y-59575701D01*
G37*
M02*
