M48
; DRILL file {KiCad 5.1.4-e60b266~84~ubuntu18.04.1} date Mon 27 Jan 2020 23:35:35 GMT
; FORMAT={-:-/ absolute / inch / decimal}
; #@! TF.CreationDate,2020-01-27T23:35:35+00:00
; #@! TF.GenerationSoftware,Kicad,Pcbnew,5.1.4-e60b266~84~ubuntu18.04.1
; #@! TF.FileFunction,Plated,1,2,PTH
FMAT,2
INCH
T1C0.0315
T2C0.0400
%
G90
G05
T1
X3.85Y-3.075
X4.25Y-3.075
X6.525Y-2.6
X6.525Y-3.0
X3.575Y-3.475
X3.575Y-3.875
X4.425Y-3.675
X4.825Y-3.675
X4.775Y-2.625
X5.175Y-2.625
X3.85Y-2.875
X4.25Y-2.875
X5.225Y-3.0531
X5.225Y-3.25
X5.375Y-3.425
X5.5719Y-3.425
X3.775Y-3.475
X3.775Y-3.875
X5.425Y-2.625
X5.425Y-2.725
X5.425Y-2.825
X5.425Y-2.925
X5.425Y-3.025
X5.425Y-3.125
X5.425Y-3.225
X5.725Y-2.625
X5.725Y-2.725
X5.725Y-2.825
X5.725Y-2.925
X5.725Y-3.025
X5.725Y-3.125
X5.725Y-3.225
X4.175Y-2.625
X4.575Y-2.625
X5.925Y-2.85
X6.325Y-2.85
X4.425Y-3.85
X4.825Y-3.85
X2.85Y-3.575
X2.85Y-3.7719
X3.575Y-2.625
X3.975Y-2.625
X4.775Y-2.8
X5.175Y-2.8
X4.525Y-3.4
X4.625Y-3.4
X4.725Y-3.4
X6.525Y-3.2
X6.525Y-3.6
X4.525Y-3.05
X4.625Y-3.05
X4.725Y-3.05
X5.925Y-2.7
X6.325Y-2.7
X3.1516Y-2.725
X3.25Y-2.725
X5.925Y-3.0
X6.325Y-3.0
X3.05Y-3.15
X3.05Y-3.25
X3.05Y-3.35
X3.05Y-3.45
X3.05Y-3.55
X3.05Y-3.65
X3.05Y-3.75
X3.05Y-3.85
X3.35Y-3.15
X3.35Y-3.25
X3.35Y-3.35
X3.35Y-3.45
X3.35Y-3.55
X3.35Y-3.65
X3.35Y-3.75
X3.35Y-3.85
X2.55Y-3.6766
X2.55Y-3.775
X5.025Y-2.975
X5.025Y-3.275
X5.925Y-3.15
X6.325Y-3.15
X3.575Y-2.8
X3.575Y-3.2
X5.125Y-3.575
X5.125Y-3.875
X5.225Y-3.575
X5.225Y-3.875
X5.325Y-3.575
X5.325Y-3.875
X5.425Y-3.575
X5.425Y-3.875
X5.525Y-3.575
X5.525Y-3.875
X5.625Y-3.575
X5.625Y-3.875
X5.725Y-3.575
X5.725Y-3.875
T2
X2.55Y-2.775
X2.55Y-2.875
X2.55Y-2.975
X2.55Y-3.075
X2.55Y-3.175
X2.65Y-2.775
X2.65Y-2.875
X2.65Y-2.975
X2.65Y-3.075
X2.65Y-3.175
X6.1Y-3.475
X6.1Y-3.575
X6.1Y-3.675
X6.2Y-3.475
X6.2Y-3.575
X6.2Y-3.675
X4.05Y-3.5
X4.05Y-3.6
X4.05Y-3.7
X4.15Y-3.5
X4.15Y-3.6
X4.15Y-3.7
T0
M30
